<?xml version="1.0" encoding="utf-8"?>
<!-- Generator: Adobe Illustrator 27.5.0, SVG Export Plug-In . SVG Version: 6.00 Build 0)  -->
<svg version="1.1" xmlns="http://www.w3.org/2000/svg" xmlns:xlink="http://www.w3.org/1999/xlink" x="0px" y="0px"
	 viewBox="0 0 500 500" style="enable-background:new 0 0 500 500;" xml:space="preserve">
<g id="BACKGROUND">
	<rect style="fill:#172733;" width="500" height="500"/>
</g>
<g id="OBJECTS">
	<g>
		<defs>
			<rect id="SVGID_1_" width="500" height="500"/>
		</defs>
		<clipPath id="SVGID_00000158000163486367710170000012904097419208757649_">
			<use xlink:href="#SVGID_1_"  style="overflow:visible;"/>
		</clipPath>
		<g style="clip-path:url(#SVGID_00000158000163486367710170000012904097419208757649_);">
			<g>
				<path style="fill:#EDEFEE;" d="M120.667,369.945H69.13c-8.346,0-15.135-6.789-15.135-15.134V184.247
					c0-8.346,6.789-15.135,15.135-15.135h166.516c6.451,0,11.699-5.248,11.699-11.699V91.166c0-8.346,6.79-15.135,15.135-15.135
					h177.847c8.346,0,15.134,6.789,15.134,15.135v60.712c0,8.346-6.789,15.135-15.134,15.135H272.614
					c-6.451,0-11.699,5.248-11.699,11.699v130.874c0,0.948-0.77,1.718-1.718,1.718c-0.948,0-1.718-0.77-1.718-1.718V178.712
					c0-8.346,6.789-15.135,15.134-15.135h167.713c6.451,0,11.699-5.248,11.699-11.699V91.166c0-6.451-5.248-11.699-11.699-11.699
					H262.48c-6.451,0-11.7,5.248-11.7,11.699v66.246c0,8.346-6.789,15.135-15.134,15.135H69.13c-6.451,0-11.699,5.248-11.699,11.699
					V354.81c0,6.451,5.248,11.699,11.699,11.699h51.537c0.949,0,1.718,0.769,1.718,1.718
					C122.385,369.176,121.616,369.945,120.667,369.945z"/>
				<path style="fill:#EDEFEE;" d="M427.581,374.513H291.614c-0.948,0-1.718-0.769-1.718-1.718c0-0.948,0.77-1.718,1.718-1.718
					h135.967c6.451,0,11.7-5.249,11.7-11.7v-114.61c0-6.451-5.249-11.699-11.7-11.699h-91.207c-0.948,0-1.718-0.769-1.718-1.718
					c0-0.949,0.77-1.718,1.718-1.718h91.207c8.346,0,15.135,6.789,15.135,15.135v114.61
					C442.716,367.723,435.927,374.513,427.581,374.513z"/>
				<g>
					<path style="fill:#EDEFEE;" d="M266.069,310.159c-0.316,0-0.573-0.256-0.573-0.573V178.712c0-3.925,3.193-7.118,7.118-7.118
						h111.232c0.317,0,0.573,0.256,0.573,0.573s-0.256,0.573-0.573,0.573H272.614c-3.293,0-5.972,2.679-5.972,5.973v130.874
						C266.642,309.903,266.386,310.159,266.069,310.159z"/>
				</g>
				<g>
					<path style="fill:#EDEFEE;" d="M460.616,120.25c-0.316,0-0.573-0.256-0.573-0.573V91.166c0-10.872-8.845-19.716-19.716-19.716
						c-0.316,0-0.573-0.256-0.573-0.573c0-0.316,0.256-0.573,0.573-0.573c11.503,0,20.861,9.358,20.861,20.861v28.511
						C461.188,119.994,460.932,120.25,460.616,120.25z"/>
				</g>
				<g>
					<path style="fill:#EDEFEE;" d="M235.646,164.531h-33.974c-0.316,0-0.573-0.256-0.573-0.573c0-0.316,0.256-0.573,0.573-0.573
						h33.974c3.293,0,5.972-2.679,5.972-5.973V91.166c0-11.503,9.358-20.861,20.862-20.861c0.316,0,0.573,0.256,0.573,0.573
						c0,0.317-0.256,0.573-0.573,0.573c-10.872,0-19.717,8.844-19.717,19.716v66.246
						C242.764,161.337,239.571,164.531,235.646,164.531z"/>
				</g>
				<g>
					<path style="fill:#EDEFEE;" d="M48.841,289.193c-0.316,0-0.573-0.256-0.573-0.573V184.247c0-11.503,9.358-20.861,20.861-20.861
						h104.724c0.316,0,0.573,0.256,0.573,0.573c0,0.317-0.256,0.573-0.573,0.573H69.13c-10.872,0-19.716,8.844-19.716,19.716
						v104.374C49.414,288.937,49.158,289.193,48.841,289.193z"/>
				</g>
				<g>
					<path style="fill:#EDEFEE;" d="M120.667,375.671H69.13c-11.503,0-20.861-9.358-20.861-20.861c0-0.316,0.256-0.573,0.573-0.573
						c0.317,0,0.573,0.256,0.573,0.573c0,10.871,8.845,19.716,19.716,19.716h51.537c0.317,0,0.573,0.256,0.573,0.573
						S120.984,375.671,120.667,375.671z"/>
				</g>
				<g>
					<path style="fill:#EDEFEE;" d="M235.646,178.274H127.954c-0.316,0-0.573-0.256-0.573-0.573c0-0.317,0.256-0.573,0.573-0.573
						h107.692c10.871,0,19.715-8.844,19.715-19.716V91.166c0-3.925,3.193-7.118,7.119-7.118h39.873c0.316,0,0.573,0.256,0.573,0.573
						s-0.256,0.573-0.573,0.573H262.48c-3.294,0-5.974,2.679-5.974,5.973v66.246C256.507,168.915,247.149,178.274,235.646,178.274z"
						/>
				</g>
				<g>
					<path style="fill:#EDEFEE;" d="M120.667,361.928H69.13c-3.925,0-7.118-3.193-7.118-7.118V231.35
						c0-0.316,0.256-0.573,0.573-0.573c0.316,0,0.573,0.256,0.573,0.573v123.46c0,3.293,2.679,5.972,5.973,5.972h51.537
						c0.317,0,0.573,0.256,0.573,0.573S120.984,361.928,120.667,361.928z"/>
				</g>
				<g>
					<path style="fill:#EDEFEE;" d="M440.327,158.996H302.353c-0.316,0-0.573-0.256-0.573-0.573c0-0.316,0.256-0.573,0.573-0.573
						h137.974c3.293,0,5.972-2.679,5.972-5.973V91.166c0-0.316,0.256-0.573,0.573-0.573s0.573,0.256,0.573,0.573v60.712
						C447.445,155.803,444.252,158.996,440.327,158.996z"/>
				</g>
				<g>
					<path style="fill:#EDEFEE;" d="M252.326,310.159c-0.316,0-0.573-0.256-0.573-0.573v-54.46c0-0.317,0.256-0.573,0.573-0.573
						s0.573,0.256,0.573,0.573v54.46C252.899,309.903,252.643,310.159,252.326,310.159z"/>
				</g>
				<g>
					<path style="fill:#EDEFEE;" d="M405.444,238.794h-69.07c-0.316,0-0.573-0.256-0.573-0.573c0-0.316,0.256-0.573,0.573-0.573
						h69.07c0.316,0,0.573,0.256,0.573,0.573C406.017,238.538,405.761,238.794,405.444,238.794z"/>
				</g>
				<g>
					<path style="fill:#EDEFEE;" d="M427.581,366.496H291.614c-0.316,0-0.573-0.256-0.573-0.573s0.256-0.573,0.573-0.573h135.967
						c3.294,0,5.973-2.68,5.973-5.973c0-0.317,0.256-0.573,0.573-0.573c0.316,0,0.573,0.256,0.573,0.573
						C434.7,363.303,431.507,366.496,427.581,366.496z"/>
				</g>
				<g>
					<path style="fill:#EDEFEE;" d="M427.581,380.239H315.942c-0.317,0-0.573-0.256-0.573-0.573s0.256-0.573,0.573-0.573h111.639
						c10.872,0,19.716-8.844,19.716-19.717v-68.75c0-0.316,0.256-0.573,0.573-0.573c0.317,0,0.573,0.256,0.573,0.573v68.75
						C448.443,370.88,439.084,380.239,427.581,380.239z"/>
				</g>
				<g>
					<path style="fill:#EDEFEE;" d="M447.87,245.34c-0.316,0-0.573-0.256-0.573-0.573c0-10.872-8.844-19.716-19.716-19.716h-91.207
						c-0.316,0-0.573-0.256-0.573-0.573c0-0.317,0.256-0.573,0.573-0.573h91.207c11.503,0,20.862,9.358,20.862,20.861
						C448.443,245.084,448.187,245.34,447.87,245.34z"/>
				</g>
			</g>
			<g>
				<polygon style="fill:#11324D;" points="347.18,336.7 325.05,336.7 328.4,327.64 343.83,327.64 				"/>
				<polygon style="fill:#174366;" points="341.18,336.7 325.05,336.7 328.4,327.64 337.83,327.64 				"/>
				<path style="fill:#11324D;" d="M356.55,340.72v22.14c0,2.96-2.4,5.37-5.37,5.37h-30.13c-2.96,0-5.37-2.41-5.37-5.37v-22.14
					c0-2.96,2.41-5.36,5.37-5.36h30.13C354.15,335.36,356.55,337.76,356.55,340.72z"/>
				<path style="fill:#174366;" d="M349.38,340.72v22.14c0,2.96-2.4,5.37-5.37,5.37h-22.96c-2.96,0-5.37-2.41-5.37-5.37v-22.14
					c0-2.96,2.41-5.36,5.37-5.36h22.96C346.98,335.36,349.38,337.76,349.38,340.72z"/>
				
					<ellipse transform="matrix(0.7071 -0.7071 0.7071 0.7071 -150.3083 340.7068)" style="fill:#11324D;" cx="336.115" cy="351.792" rx="12.928" ry="12.928"/>
				
					<ellipse transform="matrix(0.1596 -0.9872 0.9872 0.1596 -64.8057 627.46)" style="fill:#EDEFEE;" cx="336.115" cy="351.792" rx="12.075" ry="12.075"/>
				
					<ellipse transform="matrix(0.7463 -0.6657 0.6657 0.7463 -148.886 313.0042)" style="fill:#CFD1D0;" cx="336.115" cy="351.792" rx="10.909" ry="10.909"/>
				<path style="fill:#53D9DA;" d="M342.757,358.433c-3.668,3.668-9.614,3.668-13.282,0c-3.668-3.668-3.668-9.614,0-13.282
					c3.668-3.668,9.614-3.668,13.282,0C346.424,348.818,346.424,354.765,342.757,358.433z"/>
				<path style="fill:#3BBEBF;" d="M342.757,345.15c-1.863-1.863-4.315-2.775-6.757-2.745v18.773
					c2.442,0.03,4.893-0.882,6.757-2.745C346.424,354.765,346.424,348.818,342.757,345.15z"/>
				<g>
					<path style="fill:#EDEFEE;" d="M320.667,353c-0.553,0-1-0.447-1-1v-8.667c0-0.553,0.447-1,1-1s1,0.447,1,1V352
						C321.667,352.553,321.22,353,320.667,353z"/>
				</g>
				<g>
					<path style="fill:#EDEFEE;" d="M320.667,358.673c-0.553,0-1-0.447-1-1V355.5c0-0.553,0.447-1,1-1s1,0.447,1,1v2.173
						C321.667,358.226,321.22,358.673,320.667,358.673z"/>
				</g>
			</g>
			<g>
				<rect x="377.267" y="287.054" style="fill:#11324D;" width="53.668" height="45.115"/>
				<rect x="377.267" y="287.054" style="fill:#174366;" width="44.918" height="45.115"/>
				<rect x="382.3" y="292.09" style="fill:#F5B41D;" width="43.6" height="27.17"/>
				<polygon style="fill:#FFCA26;" points="425.9,292.09 382.3,319.26 382.3,292.09 				"/>
				<circle style="fill:#FF3938;" cx="404.101" cy="312.01" r="7.25"/>
				<path style="fill:#53D9DA;" d="M425.9,308.77v10.49h-43.6v-7c0.52-0.25,1.05-0.47,1.59-0.64c3.98-1.27,8.3-0.76,12.41-0.03
					c4.12,0.73,8.28,1.68,12.44,1.26c3.66-0.37,7.11-1.77,10.63-2.84C421.49,309.37,423.7,308.86,425.9,308.77z"/>
				<path style="fill:#3BBEBF;" d="M425.9,312.01v7.25h-43.6v-3.76c0.52-0.25,1.05-0.47,1.59-0.64c3.98-1.27,8.3-0.76,12.41-0.03
					c4.12,0.73,8.28,1.68,12.44,1.26c3.66-0.37,7.11-1.77,10.63-2.84C421.49,312.61,423.7,312.1,425.9,312.01z"/>
				<g>
					<path style="fill:#EDEFEE;" d="M387.167,309.02c-0.553,0-1-0.447-1-1v-11.353c0-0.553,0.447-1,1-1s1,0.447,1,1v11.353
						C388.167,308.572,387.72,309.02,387.167,309.02z"/>
				</g>
				<g>
					<path style="fill:#EDEFEE;" d="M387,314.858c-0.553,0-1-0.447-1-1v-2.191c0-0.553,0.447-1,1-1c0.553,0,1,0.447,1,1v2.191
						C388,314.411,387.553,314.858,387,314.858z"/>
				</g>
			</g>
			<g>
				<path style="fill:#174366;" d="M234.345,292.086h-28.784c-4.278,0-7.746-3.468-7.746-7.746v-21.467
					c0-4.278,3.468-7.746,7.746-7.746h28.784c4.278,0,7.746,3.468,7.746,7.746v21.467
					C242.091,288.618,238.623,292.086,234.345,292.086z"/>
				<path style="fill:#11324D;" d="M234.345,255.126H220v36.96h14.345c4.278,0,7.746-3.468,7.746-7.746v-21.467
					C242.091,258.594,238.623,255.126,234.345,255.126z"/>
				<path style="fill:#53D9DA;" d="M242.091,280.991h-14.103c-2.423,0-4.387-1.964-4.387-4.387v-5.996
					c0-2.423,1.964-4.387,4.387-4.387h14.103V280.991z"/>
				<rect x="236.333" y="266.221" style="fill:#3BBEBF;" width="5.758" height="14.77"/>
				<path style="fill:#174366;" d="M231.357,273.606c0,1.561-1.266,2.827-2.827,2.827c-1.561,0-2.827-1.266-2.827-2.827
					c0-1.561,1.266-2.827,2.827-2.827C230.092,270.779,231.357,272.045,231.357,273.606z"/>
			</g>
			<g>
				<path style="fill:#174366;" d="M374.081,161.605h-13.082c-1.76,0-3.187-1.427-3.187-3.186v-10.734
					c0-1.76,1.427-3.187,3.187-3.187h13.082c1.76,0,3.186,1.427,3.186,3.187v10.734
					C377.267,160.179,375.841,161.605,374.081,161.605z"/>
				<path style="fill:#EEA218;" d="M369.888,161.605h-4.696V155.4c0-1.297,1.051-2.348,2.348-2.348l0,0
					c1.297,0,2.348,1.051,2.348,2.348V161.605z"/>
				<g>
					<path style="fill:#174366;" d="M374.248,148.859c-1.111,0-2.013-0.901-2.013-2.012v-6.708c0-2.589-2.106-4.696-4.695-4.696
						c-2.589,0-4.696,2.106-4.696,4.696v6.708c0,1.111-0.901,2.012-2.012,2.012c-1.112,0-2.013-0.901-2.013-2.012v-6.708
						c0-4.809,3.912-8.721,8.721-8.721c4.808,0,8.72,3.912,8.72,8.721v6.708C376.261,147.958,375.36,148.859,374.248,148.859z"/>
				</g>
			</g>
			<g>
				<circle style="fill:#E33332;" cx="426.24" cy="127.056" r="17.85"/>
				<circle style="fill:#FF3938;" cx="426.24" cy="127.056" r="16.1"/>
				<circle style="fill:#53D9DA;" cx="426.24" cy="127.056" r="12.746"/>
				<path style="fill:#3BBEBF;" d="M426.25,114.311v25.491c7.035-0.006,12.736-5.71,12.736-12.746
					C438.986,120.02,433.285,114.316,426.25,114.311z"/>
				<g>
					<path style="fill:#174366;" d="M430.935,128.563h-4.696c-0.276,0-0.5-0.224-0.5-0.5v-8.385c0-0.276,0.224-0.5,0.5-0.5
						c0.276,0,0.5,0.224,0.5,0.5v7.885h4.196c0.276,0,0.5,0.224,0.5,0.5S431.212,128.563,430.935,128.563z"/>
				</g>
			</g>
			<g>
				<rect x="396.387" y="47.225" style="fill:#53D9DA;" width="36.226" height="25.492"/>
				<rect x="414.75" y="47.225" style="fill:#3BBEBF;" width="17.863" height="25.492"/>
				<rect x="396.387" y="53.263" style="fill:#174366;" width="36.226" height="6.708"/>
				<rect x="414.75" y="53.263" style="fill:#11324D;" width="17.863" height="6.708"/>
			</g>
			<g>
				<rect x="265.235" y="98.881" style="fill:#C81C1C;" width="34.884" height="23.144"/>
				<polygon style="fill:#FF3938;" points="265.235,98.881 282.677,111.375 300.12,98.881 				"/>
			</g>
			<g>
				<rect x="201.672" y="159.257" style="fill:#CFD1D0;" width="120.585" height="78.825"/>
				<rect x="201.672" y="159.257" style="fill:#EDEFEE;" width="102.752" height="78.825"/>
				<rect x="201.672" y="235.667" style="fill:#CFD1D0;" width="120.585" height="2.416"/>
				
					<rect x="200.259" y="190.522" transform="matrix(-1.836970e-16 1 -1 -1.836970e-16 440.3416 -25.8952)" style="fill:#8A8A8A;" width="65.719" height="33.402"/>
				<rect x="218.417" y="176.364" style="fill:#53D9DA;" width="29.402" height="61.718"/>
				<rect x="233.333" y="176.364" style="fill:#3BBEBF;" width="14.486" height="61.718"/>
				
					<rect x="264.2" y="168.368" transform="matrix(-1.836970e-16 1 -1 -1.836970e-16 482.3955 -89.8359)" style="fill:#8A8A8A;" width="43.832" height="55.823"/>
				<rect x="260.204" y="176.364" style="fill:#53D9DA;" width="51.823" height="39.832"/>
				<rect x="286" y="176.364" style="fill:#3BBEBF;" width="26.027" height="39.832"/>
				<g>
					<path style="fill:#FF3938;" d="M195.874,183.995L195.874,183.995c-5.875,0-10.638-4.763-10.638-10.638v-14.1h21.276v14.1
						C206.512,179.232,201.749,183.995,195.874,183.995z"/>
					<path style="fill:#EDEFEE;" d="M217.15,183.995L217.15,183.995c-5.875,0-10.638-4.763-10.638-10.638v-14.1h21.275v14.1
						C227.787,179.232,223.025,183.995,217.15,183.995z"/>
					<path style="fill:#FF3938;" d="M238.425,183.995L238.425,183.995c-5.875,0-10.638-4.763-10.638-10.638v-14.1h21.276v14.1
						C249.063,179.232,244.3,183.995,238.425,183.995z"/>
					<path style="fill:#EDEFEE;" d="M259.701,183.995L259.701,183.995c-5.875,0-10.638-4.763-10.638-10.638v-14.1h21.275v14.1
						C270.339,179.232,265.576,183.995,259.701,183.995z"/>
					<path style="fill:#FF3938;" d="M280.976,183.995L280.976,183.995c-5.875,0-10.638-4.763-10.638-10.638v-14.1h21.276v14.1
						C291.614,179.232,286.852,183.995,280.976,183.995z"/>
					<path style="fill:#EDEFEE;" d="M302.252,183.995L302.252,183.995c-5.875,0-10.638-4.763-10.638-10.638v-14.1h21.276v14.1
						C312.89,179.232,308.127,183.995,302.252,183.995z"/>
					<path style="fill:#FF3938;" d="M323.528,183.995L323.528,183.995c-5.875,0-10.638-4.763-10.638-10.638v-14.1h21.275v14.1
						C334.165,179.232,329.403,183.995,323.528,183.995z"/>
				</g>
				<g>
					<path style="fill:#E33332;" d="M201.313,159.257v14.1c0,4.977-3.422,9.143-8.038,10.305c0.833,0.21,1.701,0.333,2.6,0.333
						c5.875,0,10.638-4.763,10.638-10.638v-14.1H201.313z"/>
					<path style="fill:#CFD1D0;" d="M222.588,159.257v14.1c0,4.977-3.422,9.143-8.038,10.305c0.833,0.21,1.701,0.333,2.6,0.333
						c5.875,0,10.638-4.763,10.638-10.638v-14.1H222.588z"/>
					<path style="fill:#E33332;" d="M243.864,159.257v14.1c0,4.977-3.422,9.143-8.038,10.305c0.834,0.21,1.701,0.333,2.6,0.333
						c5.875,0,10.638-4.763,10.638-10.638v-14.1H243.864z"/>
					<path style="fill:#CFD1D0;" d="M265.139,159.257v14.1c0,4.977-3.422,9.143-8.038,10.305c0.833,0.21,1.701,0.333,2.6,0.333
						c5.875,0,10.638-4.763,10.638-10.638v-14.1H265.139z"/>
					<path style="fill:#E33332;" d="M286.415,159.257v14.1c0,4.977-3.422,9.143-8.038,10.305c0.833,0.21,1.701,0.333,2.599,0.333
						c5.875,0,10.638-4.763,10.638-10.638v-14.1H286.415z"/>
					<path style="fill:#CFD1D0;" d="M307.691,159.257v14.1c0,4.977-3.422,9.143-8.038,10.305c0.833,0.21,1.701,0.333,2.6,0.333
						c5.875,0,10.638-4.763,10.638-10.638v-14.1H307.691z"/>
					<path style="fill:#E33332;" d="M328.966,159.257v14.1c0,4.977-3.422,9.143-8.038,10.305c0.833,0.21,1.701,0.333,2.599,0.333h0
						c5.875,0,10.638-4.763,10.638-10.638v-14.1H328.966z"/>
				</g>
				<polygon style="fill:#E33332;" points="334.17,159.26 185.24,159.26 201.67,125.63 317.73,125.63 				"/>
				<polygon style="fill:#FF3938;" points="304.5,159.26 185.24,159.26 201.67,125.63 288.06,125.63 				"/>
				<rect x="194.964" y="243.785" style="fill:#EDEFEE;" width="134.003" height="5.702"/>
				<rect x="198.318" y="238.082" style="fill:#EDEFEE;" width="127.294" height="5.702"/>
				<rect x="194.964" y="246.333" style="fill:#CFD1D0;" width="134.003" height="3.153"/>
				<rect x="198.318" y="241.667" style="fill:#CFD1D0;" width="127.294" height="2.118"/>
				<g>
					<path style="fill:#EDEFEE;" d="M265,200.02c-0.553,0-1-0.448-1-1V188c0-0.552,0.447-1,1-1s1,0.448,1,1v11.02
						C266,199.572,265.553,200.02,265,200.02z"/>
				</g>
				<g>
					<path style="fill:#EDEFEE;" d="M265.333,206c-0.553,0-1-0.448-1-1v-2.333c0-0.552,0.447-1,1-1c0.553,0,1,0.448,1,1V205
						C266.333,205.552,265.886,206,265.333,206z"/>
				</g>
				<g>
					<path style="fill:#EDEFEE;" d="M224,216.333c-0.552,0-1-0.448-1-1v-24.002c0-0.552,0.448-1,1-1c0.552,0,1,0.448,1,1v24.002
						C225,215.886,224.552,216.333,224,216.333z"/>
				</g>
				<g>
					<path style="fill:#EDEFEE;" d="M224.666,228.667c-0.552,0-1-0.448-1-1v-5.333c0-0.552,0.448-1,1-1c0.552,0,1,0.448,1,1v5.333
						C225.666,228.219,225.219,228.667,224.666,228.667z"/>
				</g>
				<g>
					<path style="fill:#EDEFEE;" d="M201.509,147.076c-0.132,0-0.266-0.026-0.394-0.082c-0.508-0.218-0.742-0.806-0.524-1.313
						l6.427-14.96c0.219-0.508,0.808-0.741,1.313-0.524c0.508,0.218,0.742,0.806,0.524,1.314l-6.427,14.96
						C202.266,146.849,201.897,147.076,201.509,147.076z"/>
				</g>
			</g>
			<g>
				<g>
					<polygon style="fill:#F5B41D;" points="87.8,274.98 30.17,274.98 37.81,221.65 80.15,221.65 					"/>
				</g>
				<g>
					<polygon style="fill:#FFCA26;" points="76.14,274.98 30.17,274.98 37.81,221.65 68.5,221.65 					"/>
				</g>
				<g>
					<path style="fill:#EDEFEE;" d="M70.709,233.399c-0.829,0-1.5-0.671-1.5-1.5V218.71c0-5.507-4.587-9.987-10.226-9.987
						s-10.226,4.48-10.226,9.987v13.189c0,0.829-0.671,1.5-1.5,1.5c-0.829,0-1.5-0.671-1.5-1.5V218.71
						c0-7.161,5.933-12.987,13.226-12.987s13.226,5.826,13.226,12.987v13.189C72.209,232.728,71.538,233.399,70.709,233.399z"/>
				</g>
				<g>
					<g>
						<path style="fill:#174366;" d="M73.562,231.35c0,1.616-1.31,2.925-2.925,2.925c-1.616,0-2.925-1.31-2.925-2.925
							s1.31-2.925,2.925-2.925C72.253,228.425,73.562,229.735,73.562,231.35z"/>
					</g>
					<g>
						<path style="fill:#174366;" d="M50.255,231.35c0,1.616-1.31,2.925-2.925,2.925c-1.616,0-2.925-1.31-2.925-2.925
							s1.31-2.925,2.925-2.925C48.945,228.425,50.255,229.735,50.255,231.35z"/>
					</g>
				</g>
			</g>
			<g>
				<path style="fill:#FFCA26;" d="M76.594,397.209H56.074l-0.313-1.38h3.696h8.125h6.086c0.9,0,1.678-0.625,1.873-1.502
					l1.284-5.779c0-0.001,0-0.002,0.001-0.004l1.639-7.376c0.126-0.569-0.012-1.164-0.376-1.618
					c-0.364-0.454-0.915-0.718-1.497-0.718h-7.84H58.288h-6.323l-1.008-4.535c-0.195-0.878-0.974-1.503-1.873-1.503h-6.585
					c-1.06,0-1.919,0.859-1.919,1.919c0,1.06,0.859,1.919,1.919,1.919h5.045l3.424,15.408l1.702,7.512
					c0.198,0.874,0.975,1.495,1.872,1.495h22.052c1.06,0,1.919-0.859,1.919-1.919S77.653,397.209,76.594,397.209z M54.487,390.078
					h2.704l0.17,1.913h-2.449L54.487,390.078z M61.214,391.991l-0.17-1.913h4.954l-0.17,1.913H61.214z M69.681,391.991l0.17-1.913
					h2.704l-0.425,1.913H69.681z M73.408,386.24h-3.216l0.318-3.57h3.691L73.408,386.24z M66.657,382.671l-0.317,3.57h-5.637
					l-0.318-3.57H66.657z M56.532,382.671l0.317,3.57h-3.216l-0.793-3.57H56.532z"/>
				<path style="fill:#FFCA26;" d="M62.283,402.961c0,1.814-1.471,3.285-3.285,3.285s-3.285-1.471-3.285-3.285
					c0-1.814,1.471-3.285,3.285-3.285S62.283,401.147,62.283,402.961z"/>
				<path style="fill:#FFCA26;" d="M74.776,402.961c0,1.814-1.471,3.285-3.285,3.285c-1.814,0-3.285-1.471-3.285-3.285
					c0-1.814,1.471-3.285,3.285-3.285C73.305,399.676,74.776,401.147,74.776,402.961z"/>
			</g>
			<text transform="matrix(1 0 0 1 388.707 406.2441)" style="fill:#FFFFFF; font-family:'Bebas'; font-size:12.0753px;">0.0001</text>
			<g>
				<circle style="fill:#FFCA26;" cx="405.443" cy="262.233" r="15.765"/>
				<path style="fill:#F5B41D;" d="M405.443,246.468c-0.065,0-0.128,0.009-0.193,0.01v31.51c0.065,0.001,0.128,0.01,0.193,0.01
					c8.707,0,15.765-7.058,15.765-15.765C421.208,253.526,414.15,246.468,405.443,246.468z"/>
				<circle style="fill:#EEA218;" cx="405.443" cy="262.233" r="12.746"/>
				<path style="fill:#DE9716;" d="M405.5,249.49v25.487c7.013-0.031,12.689-5.723,12.689-12.743
					C418.189,255.212,412.513,249.52,405.5,249.49z"/>
				<text transform="matrix(1 0 0 1 402.3457 267.1216)" style="fill:#FFFFFF; font-family:'Bebas'; font-size:12.0753px;">$</text>
			</g>
			<g>
				<circle style="fill:#FF3938;" cx="93.645" cy="298.207" r="17.856"/>
				<text transform="matrix(1 0 0 1 85.0869 306.8086)" style="fill:#174366; font-family:'Bebas'; font-size:21.6141px;">%</text>
			</g>
			<g>
				<rect x="160.25" y="83.79" style="fill:#53D9DA;" width="55.003" height="30.52"/>
				<rect x="187.75" y="83.79" style="fill:#3BBEBF;" width="27.504" height="30.52"/>
				<path style="fill:#FFCA26;" d="M194.964,99.048c0,3.983-3.229,7.212-7.212,7.212c-3.983,0-7.212-3.229-7.212-7.212
					s3.229-7.212,7.212-7.212C191.735,91.837,194.964,95.065,194.964,99.048z"/>
				<path style="fill:#F5B41D;" d="M187.752,91.837c-0.001,0-0.001,0-0.002,0v14.423c0.001,0,0.001,0,0.002,0
					c3.983,0,7.212-3.229,7.212-7.212S191.735,91.837,187.752,91.837z"/>
				<g>
					<g>
						<path style="fill:#F5B41D;" d="M215.254,83.79v12.649c-0.08,0.01-0.171,0.01-0.251,0.01c-6.853,0-12.407-5.555-12.407-12.407
							c0-0.08,0-0.171,0.01-0.251H215.254z"/>
						<path style="fill:#F5B41D;" d="M215.254,101.661v12.649h-12.649c-0.01-0.081-0.01-0.171-0.01-0.252
							c0-6.853,5.555-12.407,12.407-12.407C215.082,101.651,215.173,101.651,215.254,101.661z"/>
					</g>
					<g>
						<path style="fill:#FFCA26;" d="M172.909,84.041c0,6.853-5.555,12.407-12.407,12.407c-0.081,0-0.171,0-0.252-0.01V83.79h12.649
							C172.909,83.87,172.909,83.961,172.909,84.041z"/>
						<path style="fill:#FFCA26;" d="M172.909,114.059c0,0.08,0,0.171-0.01,0.252H160.25v-12.649c0.081-0.01,0.171-0.01,0.252-0.01
							C167.355,101.651,172.909,107.206,172.909,114.059z"/>
					</g>
				</g>
				<text transform="matrix(1 0 0 1 185.1724 103.1245)" style="fill:#174366; font-family:'Bebas'; font-size:10.0628px;">$</text>
			</g>
			<g>
				<path style="fill:#FF3938;" d="M430.62,182.164l-2.14-6.156c-0.698-2.009-2.434-3.333-4.368-3.333h-7.935h-7.935
					c-1.934,0-3.67,1.324-4.368,3.333l-2.14,6.156c-0.209,0.601-0.316,1.239-0.316,1.883v29.549h14.759h14.759v-29.549
					C430.936,183.403,430.829,182.764,430.62,182.164z"/>
				<path style="fill:#E33332;" d="M430.62,182.164l-2.14-6.156c-0.698-2.009-2.434-3.333-4.368-3.333H416v40.922h14.936v-29.549
					C430.936,183.403,430.829,182.764,430.62,182.164z"/>
				<path style="fill:#174366;" d="M419.196,180.054c0,1.667-1.352,3.019-3.019,3.019c-1.667,0-3.019-1.352-3.019-3.019
					c0-1.667,1.352-3.019,3.019-3.019C417.844,177.035,419.196,178.386,419.196,180.054z"/>
				<g>
					<path style="fill:#174366;" d="M416.177,180.554c-0.276,0-0.5-0.224-0.5-0.5v-12.746c0-0.276,0.224-0.5,0.5-0.5
						c0.276,0,0.5,0.224,0.5,0.5v12.746C416.677,180.33,416.453,180.554,416.177,180.554z"/>
				</g>
				<text transform="matrix(1 0 0 1 411.5273 205.8423)" style="fill:#174366; font-family:'Bebas'; font-size:18.1291px;">$</text>
			</g>
			<g>
				
					<rect x="307.038" y="282.004" transform="matrix(0.7071 -0.7071 0.7071 0.7071 -113.5049 303.2159)" style="fill:#D0CFD5;" width="4.448" height="13.232"/>
				<path style="fill:#174366;" d="M321.811,301.17L321.811,301.17c-1.704,1.704-4.466,1.704-6.169,0l-5.318-5.318
					c-1.704-1.704-1.704-4.466,0-6.169l0,0c1.704-1.703,4.466-1.703,6.169,0l5.318,5.318
					C323.515,296.704,323.515,299.466,321.811,301.17z"/>
				<circle style="fill:#174366;" cx="293.518" cy="272.877" r="17.75"/>
				<path style="fill:#11324D;" d="M306.069,260.325c-3.534-3.534-8.187-5.256-12.819-5.186v35.475
					c4.632,0.069,9.285-1.652,12.819-5.186C313.001,278.496,313.001,267.257,306.069,260.325z"/>
				<circle style="fill:#53D9DA;" cx="293.518" cy="272.877" r="13.839"/>
				<path style="fill:#3BBEBF;" d="M303.303,263.091c-2.707-2.707-6.256-4.057-9.803-4.052v27.677
					c3.548,0.004,7.097-1.346,9.803-4.053C308.708,277.258,308.708,268.495,303.303,263.091z"/>
			</g>
			<g>
				<path style="fill:#FFCA26;" d="M365.528,57.366c0-13.245-10.737-23.983-23.983-23.983c-13.245,0-23.983,10.738-23.983,23.983
					c0,4.877,1.459,9.411,3.96,13.197l0,0l20.023,23.868l20.023-23.868l0,0C364.068,66.776,365.528,62.242,365.528,57.366z"/>
				<path style="fill:#F5B41D;" d="M341.545,33.383c-0.099,0-0.196,0.006-0.295,0.007v60.689l0.295,0.351l20.023-23.868
					c2.5-3.786,3.96-8.32,3.96-13.197C365.528,44.12,354.79,33.383,341.545,33.383z"/>
				
					<ellipse transform="matrix(0.9247 -0.3807 0.3807 0.9247 4.5687 134.2266)" style="fill:#FF3938;" cx="341.545" cy="55.566" rx="8.341" ry="8.341"/>
				<path style="fill:#E33332;" d="M341.545,47.225c-0.099,0-0.196,0.011-0.295,0.015v16.651c0.099,0.004,0.195,0.015,0.295,0.015
					c4.606,0,8.341-3.734,8.341-8.341C349.885,50.959,346.151,47.225,341.545,47.225z"/>
			</g>
			<g>
				<path style="fill:#FF3938;" d="M95.845,132.088H76.536c-1.903,0-3.727,0.761-5.065,2.114l-10.429,10.545
					c-1.319,1.334-2.059,3.133-2.059,5.009v21.872h36.862V132.088z"/>
				<rect x="58.98" y="150.25" style="fill:#E33332;" width="36.87" height="21.38"/>
				<path style="fill:#53D9DA;" d="M91.82,152.213v-16.101H76.536c-0.822,0-1.624,0.335-2.203,0.92l-10.429,10.545
					c-0.577,0.584-0.895,1.357-0.895,2.179v2.457H91.82z"/>
				<rect x="80.75" y="136.113" style="fill:#3BBEBF;" width="11.07" height="16.101"/>
				<g>
					<path style="fill:#B52928;" d="M89.98,170.83c0,0.27-0.01,0.54-0.03,0.8H64.88c-0.02-0.26-0.03-0.53-0.03-0.8
						c0-5.59,3.75-10.57,9.12-12.09c1.12-0.32,2.28-0.48,3.44-0.48C84.34,158.26,89.98,163.9,89.98,170.83z"/>
					<path style="fill:#11324D;" d="M87.98,170.83c0,5.83-4.73,10.57-10.57,10.57c-1,0-1.97-0.14-2.89-0.4
						c-4.43-1.26-7.67-5.34-7.67-10.17c0-4.84,3.24-8.91,7.67-10.17c0.92-0.26,1.89-0.4,2.89-0.4
						C83.25,160.26,87.98,164.99,87.98,170.83z"/>
				</g>
				<rect x="93.645" y="122.028" style="fill:#FFCA26;" width="68.618" height="49.599"/>
				<rect x="93.65" y="150.5" style="fill:#F5B41D;" width="68.61" height="21.13"/>
				<path style="fill:#FF3938;" d="M162.26,122.03v45.23c-11.34-0.69-22.34-6.91-28.53-16.48c-5.53-8.51-7.49-19.3-14.62-26.51
					c-0.79-0.8-1.65-1.56-2.54-2.24H162.26z"/>
				<path style="fill:#E33332;" d="M162.26,122.03v40.54c-5.11-2.85-9.55-6.88-12.73-11.79c-5.53-8.51-7.49-19.3-14.62-26.51
					c-0.79-0.8-1.65-1.56-2.54-2.24H162.26z"/>
				<g>
					<path style="fill:#C78F0E;" d="M162.25,170.83c0,0.27-0.01,0.54-0.03,0.8h-25.07c-0.02-0.26-0.03-0.53-0.03-0.8
						c0-5.59,3.75-10.57,9.12-12.09c1.12-0.32,2.28-0.48,3.44-0.48C156.61,158.26,162.25,163.9,162.25,170.83z"/>
					<path style="fill:#11324D;" d="M160.25,170.83c0,5.83-4.73,10.57-10.57,10.57c-1,0-1.97-0.14-2.89-0.4
						c-4.43-1.26-7.67-5.34-7.67-10.17c0-4.84,3.24-8.91,7.67-10.17c0.92-0.26,1.89-0.4,2.89-0.4
						C155.52,160.26,160.25,164.99,160.25,170.83z"/>
				</g>
				<g>
					<path style="fill:#C78F0E;" d="M120.32,170.83c0,0.27-0.01,0.54-0.03,0.8H95.22c-0.02-0.26-0.03-0.53-0.03-0.8
						c0-1.38,0.23-2.73,0.66-4c1.3-3.85,4.42-6.95,8.46-8.09c1.12-0.32,2.28-0.48,3.44-0.48
						C114.68,158.26,120.32,163.9,120.32,170.83z"/>
					<path style="fill:#11324D;" d="M118.32,170.83c0,5.83-4.73,10.57-10.57,10.57c-1,0-1.97-0.14-2.89-0.4
						c-4.43-1.26-7.67-5.34-7.67-10.17c0-4.84,3.24-8.91,7.67-10.17c0.92-0.26,1.89-0.4,2.89-0.4
						C113.59,160.26,118.32,164.99,118.32,170.83z"/>
					<path style="fill:#174366;" d="M82.19,170.83c0,4.82-3.24,8.9-7.67,10.17c-4.43-1.26-7.67-5.34-7.67-10.17
						c0-4.84,3.24-8.91,7.67-10.17C78.95,161.92,82.19,166,82.19,170.83z"/>
					<path style="fill:#174366;" d="M154.45,170.83c0,4.82-3.24,8.9-7.66,10.17c-4.43-1.26-7.67-5.34-7.67-10.17
						c0-4.84,3.24-8.91,7.67-10.17C151.21,161.92,154.45,166,154.45,170.83z"/>
					<path style="fill:#174366;" d="M112.52,170.83c0,4.82-3.24,8.9-7.66,10.17c-4.43-1.26-7.67-5.34-7.67-10.17
						c0-4.84,3.24-8.91,7.67-10.17C109.28,161.92,112.52,166,112.52,170.83z"/>
				</g>
				<path style="fill:#CFD1D0;" d="M82.95,170.83c0,3.06-2.48,5.53-5.54,5.53c-0.56,0-1.11-0.08-1.62-0.24
					c-2.26-0.69-3.91-2.79-3.91-5.29s1.65-4.61,3.91-5.3c0.51-0.16,1.06-0.24,1.62-0.24C80.47,165.29,82.95,167.77,82.95,170.83z"/>
				<path style="fill:#CFD1D0;" d="M155.22,170.83c0,3.06-2.48,5.53-5.54,5.53c-0.56,0-1.11-0.08-1.62-0.24
					c-2.27-0.69-3.91-2.79-3.91-5.29s1.64-4.61,3.91-5.3c0.51-0.16,1.06-0.24,1.62-0.24C152.74,165.29,155.22,167.77,155.22,170.83z
					"/>
				<path style="fill:#CFD1D0;" d="M113.29,170.83c0,3.06-2.48,5.53-5.54,5.53c-0.56,0-1.11-0.08-1.62-0.24
					c-2.26-0.69-3.91-2.79-3.91-5.29s1.65-4.61,3.91-5.3c0.51-0.16,1.06-0.24,1.62-0.24C110.81,165.29,113.29,167.77,113.29,170.83z
					"/>
				<path style="fill:#EDEFEE;" d="M79.7,170.83c0,2.49-1.65,4.6-3.91,5.29c-2.26-0.69-3.91-2.79-3.91-5.29s1.65-4.61,3.91-5.3
					C78.05,166.23,79.7,168.34,79.7,170.83z"/>
				<path style="fill:#EDEFEE;" d="M151.97,170.83c0,2.49-1.65,4.6-3.91,5.29c-2.27-0.69-3.91-2.79-3.91-5.29s1.64-4.61,3.91-5.3
					C150.32,166.23,151.97,168.34,151.97,170.83z"/>
				<path style="fill:#EDEFEE;" d="M110.04,170.83c0,2.49-1.65,4.6-3.91,5.29c-2.26-0.69-3.91-2.79-3.91-5.29s1.65-4.61,3.91-5.3
					C108.39,166.23,110.04,168.34,110.04,170.83z"/>
				<g>
					<path style="fill:#EDEFEE;" d="M69,149.75c-0.264,0-0.528-0.104-0.725-0.311c-0.381-0.4-0.365-1.033,0.036-1.414l8.415-8
						c0.4-0.38,1.035-0.365,1.414,0.036c0.381,0.4,0.365,1.033-0.036,1.414l-8.414,8C69.496,149.659,69.248,149.75,69,149.75z"/>
				</g>
				<g>
					<path style="fill:#EDEFEE;" d="M99,153.25c-0.552,0-1-0.448-1-1V130.5c0-0.552,0.448-1,1-1c0.552,0,1,0.448,1,1v21.75
						C100,152.802,99.552,153.25,99,153.25z"/>
				</g>
			</g>
			<g>
				<g>
					<g>
						<path style="fill:#E33332;" d="M145.825,354.517c-7.698,0-13.961-6.264-13.961-13.962c0-7.698,6.263-13.961,13.961-13.961
							c7.698,0,13.962,6.263,13.962,13.961C159.787,348.253,153.523,354.517,145.825,354.517z M145.825,334.644
							c-3.259,0-5.911,2.651-5.911,5.911c0,3.26,2.652,5.912,5.911,5.912c3.26,0,5.911-2.652,5.911-5.912
							C151.736,337.295,149.085,334.644,145.825,334.644z"/>
					</g>
					<g>
						<path style="fill:#FF3938;" d="M126.498,354.517c-7.698,0-13.961-6.264-13.961-13.962c0-7.698,6.263-13.961,13.961-13.961
							s13.962,6.263,13.962,13.961C140.459,348.253,134.196,354.517,126.498,354.517z M126.498,334.644
							c-3.259,0-5.911,2.651-5.911,5.911c0,3.26,2.652,5.912,5.911,5.912c3.26,0,5.911-2.652,5.911-5.912
							C132.409,337.295,129.757,334.644,126.498,334.644z"/>
					</g>
				</g>
				<rect x="104.734" y="361.183" style="fill:#FFCA26;" width="62.855" height="48.593"/>
				<rect x="153.667" y="361.183" style="fill:#F5B41D;" width="13.922" height="48.593"/>
				<rect x="104.734" y="361.183" style="fill:#F5B41D;" width="62.855" height="2.817"/>
				<rect x="99.367" y="342.111" style="fill:#53D9DA;" width="73.589" height="19.069"/>
				<polygon style="fill:#3BBEBF;" points="162,342.111 162,359 99.367,359 99.367,361.18 172.956,361.18 172.956,342.111 				"/>
				<rect x="125.53" y="342.111" style="fill:#FF3938;" width="21.263" height="67.662"/>
				<rect x="135.333" y="342.111" style="fill:#E33332;" width="11.46" height="67.662"/>
			</g>
			<g>
				<g>
					<g>
						<g>
							<path style="fill:#EDEFEE;" d="M113.288,256.701c-0.276,0-0.5-0.224-0.5-0.5v-3.898c0-0.276,0.224-0.5,0.5-0.5
								c0.276,0,0.5,0.224,0.5,0.5v3.898C113.788,256.478,113.564,256.701,113.288,256.701z"/>
						</g>
						<g>
							<path style="fill:#EDEFEE;" d="M113.288,272.662c-0.276,0-0.5-0.224-0.5-0.5v-3.898c0-0.276,0.224-0.5,0.5-0.5
								c0.276,0,0.5,0.224,0.5,0.5v3.898C113.788,272.439,113.564,272.662,113.288,272.662z"/>
						</g>
						<g>
							<path style="fill:#EDEFEE;" d="M123.217,262.732h-3.898c-0.276,0-0.5-0.224-0.5-0.5c0-0.276,0.224-0.5,0.5-0.5h3.898
								c0.276,0,0.5,0.224,0.5,0.5C123.717,262.509,123.493,262.732,123.217,262.732z"/>
						</g>
						<g>
							<path style="fill:#EDEFEE;" d="M107.256,262.732h-3.897c-0.276,0-0.5-0.224-0.5-0.5c0-0.276,0.224-0.5,0.5-0.5h3.897
								c0.276,0,0.5,0.224,0.5,0.5C107.756,262.509,107.532,262.732,107.256,262.732z"/>
						</g>
					</g>
					<g>
						<g>
							<path style="fill:#EDEFEE;" d="M109.022,258.468c-0.128,0-0.256-0.049-0.354-0.147l-2.756-2.756
								c-0.195-0.195-0.195-0.512,0-0.707s0.512-0.195,0.707,0l2.756,2.756c0.195,0.195,0.195,0.512,0,0.707
								C109.278,258.419,109.15,258.468,109.022,258.468z"/>
						</g>
						<g>
							<path style="fill:#EDEFEE;" d="M120.309,269.754c-0.128,0-0.256-0.049-0.354-0.147l-2.756-2.756
								c-0.195-0.195-0.195-0.512,0-0.707c0.195-0.195,0.512-0.195,0.707,0l2.756,2.756c0.195,0.195,0.195,0.512,0,0.707
								C120.564,269.705,120.436,269.754,120.309,269.754z"/>
						</g>
						<g>
							<path style="fill:#EDEFEE;" d="M117.553,258.468c-0.128,0-0.256-0.049-0.354-0.147c-0.195-0.195-0.195-0.512,0-0.707
								l2.756-2.756c0.195-0.195,0.512-0.195,0.707,0s0.195,0.512,0,0.707l-2.756,2.756
								C117.809,258.419,117.681,258.468,117.553,258.468z"/>
						</g>
						<g>
							<path style="fill:#EDEFEE;" d="M106.267,269.754c-0.128,0-0.256-0.049-0.354-0.147c-0.195-0.195-0.195-0.512,0-0.707
								l2.756-2.756c0.195-0.195,0.512-0.195,0.707,0c0.195,0.195,0.195,0.512,0,0.707l-2.756,2.756
								C106.522,269.705,106.394,269.754,106.267,269.754z"/>
						</g>
					</g>
				</g>
				<g>
					<g>
						<g>
							<path style="fill:#EDEFEE;" d="M37.401,116.493c-0.276,0-0.5-0.224-0.5-0.5v-3.897c0-0.276,0.224-0.5,0.5-0.5
								c0.276,0,0.5,0.224,0.5,0.5v3.897C37.901,116.27,37.677,116.493,37.401,116.493z"/>
						</g>
						<g>
							<path style="fill:#EDEFEE;" d="M37.401,132.454c-0.276,0-0.5-0.224-0.5-0.5v-3.898c0-0.276,0.224-0.5,0.5-0.5
								c0.276,0,0.5,0.224,0.5,0.5v3.898C37.901,132.23,37.677,132.454,37.401,132.454z"/>
						</g>
						<g>
							<path style="fill:#EDEFEE;" d="M47.33,122.525h-3.897c-0.276,0-0.5-0.224-0.5-0.5c0-0.276,0.224-0.5,0.5-0.5h3.897
								c0.276,0,0.5,0.224,0.5,0.5C47.83,122.301,47.606,122.525,47.33,122.525z"/>
						</g>
						<g>
							<path style="fill:#EDEFEE;" d="M31.369,122.525h-3.897c-0.276,0-0.5-0.224-0.5-0.5c0-0.276,0.224-0.5,0.5-0.5h3.897
								c0.276,0,0.5,0.224,0.5,0.5C31.869,122.301,31.645,122.525,31.369,122.525z"/>
						</g>
					</g>
					<g>
						<g>
							<path style="fill:#EDEFEE;" d="M33.136,118.26c-0.128,0-0.256-0.049-0.354-0.147l-2.756-2.756
								c-0.195-0.195-0.195-0.512,0-0.707c0.195-0.195,0.512-0.195,0.707,0l2.756,2.756c0.195,0.195,0.195,0.512,0,0.707
								C33.392,118.211,33.264,118.26,33.136,118.26z"/>
						</g>
						<g>
							<path style="fill:#EDEFEE;" d="M44.421,129.546c-0.128,0-0.256-0.049-0.354-0.146l-2.756-2.756
								c-0.195-0.195-0.195-0.512,0-0.707c0.195-0.195,0.512-0.195,0.707,0l2.756,2.756c0.195,0.195,0.195,0.512,0,0.707
								C44.677,129.497,44.549,129.546,44.421,129.546z"/>
						</g>
						<g>
							<path style="fill:#EDEFEE;" d="M41.665,118.26c-0.128,0-0.256-0.049-0.353-0.147c-0.195-0.195-0.195-0.512,0-0.707
								l2.756-2.756c0.195-0.195,0.512-0.195,0.707,0c0.195,0.195,0.195,0.512,0,0.707l-2.756,2.756
								C41.921,118.211,41.793,118.26,41.665,118.26z"/>
						</g>
						<g>
							<path style="fill:#EDEFEE;" d="M30.38,129.546c-0.128,0-0.256-0.049-0.354-0.146c-0.195-0.195-0.195-0.512,0-0.707
								l2.756-2.756c0.195-0.195,0.512-0.195,0.707,0c0.195,0.195,0.195,0.512,0,0.707l-2.756,2.756
								C30.636,129.497,30.508,129.546,30.38,129.546z"/>
						</g>
					</g>
				</g>
				<g>
					<g>
						<g>
							<path style="fill:#EDEFEE;" d="M194.964,54.439c-0.276,0-0.5-0.224-0.5-0.5v-3.897c0-0.276,0.224-0.5,0.5-0.5
								c0.276,0,0.5,0.224,0.5,0.5v3.897C195.464,54.216,195.24,54.439,194.964,54.439z"/>
						</g>
						<g>
							<path style="fill:#EDEFEE;" d="M194.964,70.4c-0.276,0-0.5-0.224-0.5-0.5v-3.897c0-0.276,0.224-0.5,0.5-0.5
								c0.276,0,0.5,0.224,0.5,0.5V69.9C195.464,70.177,195.24,70.4,194.964,70.4z"/>
						</g>
						<g>
							<path style="fill:#EDEFEE;" d="M204.893,60.471h-3.897c-0.276,0-0.5-0.224-0.5-0.5c0-0.276,0.224-0.5,0.5-0.5h3.897
								c0.276,0,0.5,0.224,0.5,0.5C205.393,60.248,205.169,60.471,204.893,60.471z"/>
						</g>
						<g>
							<path style="fill:#EDEFEE;" d="M188.932,60.471h-3.897c-0.276,0-0.5-0.224-0.5-0.5c0-0.276,0.224-0.5,0.5-0.5h3.897
								c0.276,0,0.5,0.224,0.5,0.5C189.432,60.248,189.208,60.471,188.932,60.471z"/>
						</g>
					</g>
					<g>
						<g>
							<path style="fill:#EDEFEE;" d="M190.699,56.206c-0.128,0-0.256-0.049-0.354-0.146l-2.756-2.756
								c-0.195-0.195-0.195-0.512,0-0.707c0.195-0.195,0.512-0.195,0.707,0l2.756,2.756c0.195,0.195,0.195,0.512,0,0.707
								C190.955,56.157,190.827,56.206,190.699,56.206z"/>
						</g>
						<g>
							<path style="fill:#EDEFEE;" d="M201.985,67.492c-0.128,0-0.256-0.049-0.354-0.146l-2.756-2.756
								c-0.195-0.195-0.195-0.512,0-0.707s0.512-0.195,0.707,0l2.756,2.756c0.195,0.195,0.195,0.512,0,0.707
								C202.241,67.443,202.113,67.492,201.985,67.492z"/>
						</g>
						<g>
							<path style="fill:#EDEFEE;" d="M199.229,56.206c-0.128,0-0.256-0.049-0.354-0.146c-0.195-0.195-0.195-0.512,0-0.707
								l2.756-2.756c0.195-0.195,0.512-0.195,0.707,0c0.195,0.195,0.195,0.512,0,0.707l-2.756,2.756
								C199.485,56.157,199.357,56.206,199.229,56.206z"/>
						</g>
						<g>
							<path style="fill:#EDEFEE;" d="M187.943,67.492c-0.128,0-0.256-0.049-0.354-0.146c-0.195-0.195-0.195-0.512,0-0.707
								l2.756-2.756c0.195-0.195,0.512-0.195,0.707,0c0.195,0.195,0.195,0.512,0,0.707l-2.756,2.756
								C188.199,67.443,188.071,67.492,187.943,67.492z"/>
						</g>
					</g>
				</g>
				<g>
					<g>
						<g>
							<path style="fill:#EDEFEE;" d="M367.54,264.682c-0.276,0-0.5-0.224-0.5-0.5v-3.897c0-0.276,0.224-0.5,0.5-0.5
								c0.276,0,0.5,0.224,0.5,0.5v3.897C368.04,264.458,367.816,264.682,367.54,264.682z"/>
						</g>
						<g>
							<path style="fill:#EDEFEE;" d="M367.54,280.643c-0.276,0-0.5-0.224-0.5-0.5v-3.898c0-0.276,0.224-0.5,0.5-0.5
								c0.276,0,0.5,0.224,0.5,0.5v3.898C368.04,280.419,367.816,280.643,367.54,280.643z"/>
						</g>
						<g>
							<path style="fill:#EDEFEE;" d="M377.469,270.713h-3.897c-0.276,0-0.5-0.224-0.5-0.5s0.224-0.5,0.5-0.5h3.897
								c0.276,0,0.5,0.224,0.5,0.5S377.745,270.713,377.469,270.713z"/>
						</g>
						<g>
							<path style="fill:#EDEFEE;" d="M361.509,270.713h-3.897c-0.276,0-0.5-0.224-0.5-0.5s0.224-0.5,0.5-0.5h3.897
								c0.276,0,0.5,0.224,0.5,0.5S361.785,270.713,361.509,270.713z"/>
						</g>
					</g>
					<g>
						<g>
							<path style="fill:#EDEFEE;" d="M363.275,266.448c-0.128,0-0.256-0.049-0.354-0.146l-2.756-2.756
								c-0.195-0.195-0.195-0.512,0-0.707s0.512-0.195,0.707,0l2.756,2.756c0.195,0.195,0.195,0.512,0,0.707
								C363.531,266.399,363.403,266.448,363.275,266.448z"/>
						</g>
						<g>
							<path style="fill:#EDEFEE;" d="M374.56,277.734c-0.128,0-0.256-0.049-0.353-0.147l-2.756-2.756
								c-0.195-0.195-0.195-0.512,0-0.707c0.195-0.195,0.512-0.195,0.707,0l2.756,2.756c0.195,0.195,0.195,0.512,0,0.707
								C374.816,277.685,374.688,277.734,374.56,277.734z"/>
						</g>
						<g>
							<path style="fill:#EDEFEE;" d="M371.805,266.448c-0.128,0-0.256-0.049-0.354-0.146c-0.195-0.195-0.195-0.512,0-0.707
								l2.756-2.756c0.195-0.195,0.512-0.195,0.707,0c0.195,0.195,0.195,0.512,0,0.707l-2.756,2.756
								C372.06,266.399,371.933,266.448,371.805,266.448z"/>
						</g>
						<g>
							<path style="fill:#EDEFEE;" d="M360.52,277.734c-0.128,0-0.256-0.049-0.354-0.147c-0.195-0.195-0.195-0.512,0-0.707
								l2.756-2.756c0.195-0.195,0.512-0.195,0.707,0c0.195,0.195,0.195,0.512,0,0.707l-2.756,2.756
								C360.775,277.685,360.647,277.734,360.52,277.734z"/>
						</g>
					</g>
				</g>
				<g>
					<g>
						<g>
							<path style="fill:#EDEFEE;" d="M355.695,394.145c-0.276,0-0.5-0.224-0.5-0.5v-3.897c0-0.276,0.224-0.5,0.5-0.5
								s0.5,0.224,0.5,0.5v3.897C356.195,393.921,355.972,394.145,355.695,394.145z"/>
						</g>
						<g>
							<path style="fill:#EDEFEE;" d="M355.695,410.105c-0.276,0-0.5-0.224-0.5-0.5v-3.897c0-0.276,0.224-0.5,0.5-0.5
								s0.5,0.224,0.5,0.5v3.897C356.195,409.882,355.972,410.105,355.695,410.105z"/>
						</g>
						<g>
							<path style="fill:#EDEFEE;" d="M365.624,400.176h-3.897c-0.276,0-0.5-0.224-0.5-0.5c0-0.276,0.224-0.5,0.5-0.5h3.897
								c0.276,0,0.5,0.224,0.5,0.5C366.124,399.952,365.9,400.176,365.624,400.176z"/>
						</g>
						<g>
							<path style="fill:#EDEFEE;" d="M349.663,400.176h-3.897c-0.276,0-0.5-0.224-0.5-0.5c0-0.276,0.224-0.5,0.5-0.5h3.897
								c0.276,0,0.5,0.224,0.5,0.5C350.163,399.952,349.939,400.176,349.663,400.176z"/>
						</g>
					</g>
					<g>
						<g>
							<path style="fill:#EDEFEE;" d="M351.43,395.911c-0.128,0-0.256-0.049-0.353-0.147l-2.756-2.756
								c-0.195-0.195-0.195-0.512,0-0.707c0.195-0.195,0.512-0.195,0.707,0l2.756,2.756c0.195,0.195,0.195,0.512,0,0.707
								C351.685,395.862,351.558,395.911,351.43,395.911z"/>
						</g>
						<g>
							<path style="fill:#EDEFEE;" d="M362.716,407.197c-0.128,0-0.256-0.049-0.354-0.146l-2.756-2.756
								c-0.195-0.195-0.195-0.512,0-0.707c0.195-0.195,0.512-0.195,0.707,0l2.756,2.756c0.195,0.195,0.195,0.512,0,0.707
								C362.972,407.148,362.844,407.197,362.716,407.197z"/>
						</g>
						<g>
							<path style="fill:#EDEFEE;" d="M359.96,395.911c-0.128,0-0.256-0.049-0.354-0.147c-0.195-0.195-0.195-0.512,0-0.707
								l2.756-2.756c0.195-0.195,0.512-0.195,0.707,0c0.195,0.195,0.195,0.512,0,0.707l-2.756,2.756
								C360.216,395.862,360.088,395.911,359.96,395.911z"/>
						</g>
						<g>
							<path style="fill:#EDEFEE;" d="M348.674,407.197c-0.128,0-0.256-0.049-0.354-0.146c-0.195-0.195-0.195-0.512,0-0.707
								l2.756-2.756c0.195-0.195,0.512-0.195,0.707,0c0.195,0.195,0.195,0.512,0,0.707l-2.756,2.756
								C348.93,407.148,348.802,407.197,348.674,407.197z"/>
						</g>
					</g>
				</g>
				<g>
					<g>
						<g>
							<path style="fill:#EDEFEE;" d="M146.793,425.103c-0.276,0-0.5-0.224-0.5-0.5v-3.897c0-0.276,0.224-0.5,0.5-0.5
								c0.276,0,0.5,0.224,0.5,0.5v3.897C147.293,424.88,147.069,425.103,146.793,425.103z"/>
						</g>
						<g>
							<path style="fill:#EDEFEE;" d="M146.793,441.065c-0.276,0-0.5-0.224-0.5-0.5v-3.898c0-0.276,0.224-0.5,0.5-0.5
								c0.276,0,0.5,0.224,0.5,0.5v3.898C147.293,440.841,147.069,441.065,146.793,441.065z"/>
						</g>
						<g>
							<path style="fill:#EDEFEE;" d="M156.722,431.136h-3.898c-0.276,0-0.5-0.224-0.5-0.5c0-0.276,0.224-0.5,0.5-0.5h3.898
								c0.276,0,0.5,0.224,0.5,0.5C157.222,430.912,156.998,431.136,156.722,431.136z"/>
						</g>
						<g>
							<path style="fill:#EDEFEE;" d="M140.761,431.136h-3.897c-0.276,0-0.5-0.224-0.5-0.5c0-0.276,0.224-0.5,0.5-0.5h3.897
								c0.276,0,0.5,0.224,0.5,0.5C141.261,430.912,141.038,431.136,140.761,431.136z"/>
						</g>
					</g>
					<g>
						<g>
							<path style="fill:#EDEFEE;" d="M142.528,426.87c-0.128,0-0.256-0.049-0.354-0.146l-2.756-2.756
								c-0.195-0.195-0.195-0.512,0-0.707c0.195-0.195,0.512-0.195,0.707,0l2.756,2.756c0.195,0.195,0.195,0.512,0,0.707
								C142.784,426.821,142.656,426.87,142.528,426.87z"/>
						</g>
						<g>
							<path style="fill:#EDEFEE;" d="M153.814,438.156c-0.128,0-0.256-0.049-0.354-0.147l-2.756-2.756
								c-0.195-0.195-0.195-0.512,0-0.707c0.195-0.195,0.512-0.195,0.707,0l2.756,2.756c0.195,0.195,0.195,0.512,0,0.707
								C154.07,438.107,153.942,438.156,153.814,438.156z"/>
						</g>
						<g>
							<path style="fill:#EDEFEE;" d="M151.058,426.87c-0.128,0-0.256-0.049-0.354-0.146c-0.195-0.195-0.195-0.512,0-0.707
								l2.756-2.756c0.195-0.195,0.512-0.195,0.707,0c0.195,0.195,0.195,0.512,0,0.707l-2.756,2.756
								C151.314,426.821,151.186,426.87,151.058,426.87z"/>
						</g>
						<g>
							<path style="fill:#EDEFEE;" d="M139.772,438.156c-0.128,0-0.256-0.049-0.354-0.147c-0.195-0.195-0.195-0.512,0-0.707
								l2.756-2.756c0.195-0.195,0.512-0.195,0.707,0c0.195,0.195,0.195,0.512,0,0.707l-2.756,2.756
								C140.028,438.107,139.9,438.156,139.772,438.156z"/>
						</g>
					</g>
				</g>
				<g>
					<g>
						<g>
							<path style="fill:#EDEFEE;" d="M371.805,24.444c-0.276,0-0.5-0.224-0.5-0.5v-3.897c0-0.276,0.224-0.5,0.5-0.5
								s0.5,0.224,0.5,0.5v3.897C372.305,24.221,372.081,24.444,371.805,24.444z"/>
						</g>
						<g>
							<path style="fill:#EDEFEE;" d="M371.805,40.405c-0.276,0-0.5-0.224-0.5-0.5v-3.897c0-0.276,0.224-0.5,0.5-0.5
								s0.5,0.224,0.5,0.5v3.897C372.305,40.182,372.081,40.405,371.805,40.405z"/>
						</g>
						<g>
							<path style="fill:#EDEFEE;" d="M381.734,30.476h-3.897c-0.276,0-0.5-0.224-0.5-0.5c0-0.276,0.224-0.5,0.5-0.5h3.897
								c0.276,0,0.5,0.224,0.5,0.5C382.234,30.252,382.011,30.476,381.734,30.476z"/>
						</g>
						<g>
							<path style="fill:#EDEFEE;" d="M365.773,30.476h-3.897c-0.276,0-0.5-0.224-0.5-0.5c0-0.276,0.224-0.5,0.5-0.5h3.897
								c0.276,0,0.5,0.224,0.5,0.5C366.273,30.252,366.05,30.476,365.773,30.476z"/>
						</g>
					</g>
					<g>
						<g>
							<path style="fill:#EDEFEE;" d="M367.54,26.211c-0.128,0-0.256-0.049-0.354-0.146l-2.756-2.756
								c-0.195-0.195-0.195-0.512,0-0.707c0.195-0.195,0.512-0.195,0.707,0l2.756,2.756c0.195,0.195,0.195,0.512,0,0.707
								C367.796,26.162,367.668,26.211,367.54,26.211z"/>
						</g>
						<g>
							<path style="fill:#EDEFEE;" d="M378.826,37.497c-0.128,0-0.256-0.049-0.353-0.146l-2.756-2.756
								c-0.195-0.195-0.195-0.512,0-0.707c0.195-0.195,0.512-0.195,0.707,0l2.756,2.756c0.195,0.195,0.195,0.512,0,0.707
								C379.082,37.448,378.954,37.497,378.826,37.497z"/>
						</g>
						<g>
							<path style="fill:#EDEFEE;" d="M376.07,26.211c-0.128,0-0.256-0.049-0.353-0.146c-0.195-0.195-0.195-0.512,0-0.707
								l2.756-2.756c0.195-0.195,0.512-0.195,0.707,0c0.195,0.195,0.195,0.512,0,0.707l-2.756,2.756
								C376.326,26.162,376.198,26.211,376.07,26.211z"/>
						</g>
						<g>
							<path style="fill:#EDEFEE;" d="M364.784,37.497c-0.128,0-0.256-0.049-0.353-0.146c-0.195-0.195-0.195-0.512,0-0.707
								l2.756-2.756c0.195-0.195,0.512-0.195,0.707,0c0.195,0.195,0.195,0.512,0,0.707l-2.756,2.756
								C365.04,37.448,364.912,37.497,364.784,37.497z"/>
						</g>
					</g>
				</g>
			</g>
			<g>
				<path style="fill:#EDEFEE;" d="M39.001,257.701c-0.048,0-0.096-0.003-0.144-0.01c-0.547-0.079-0.926-0.586-0.847-1.133
					l2.166-15.035c0.079-0.546,0.591-0.921,1.132-0.847c0.547,0.079,0.926,0.585,0.847,1.132l-2.166,15.035
					C39.918,257.342,39.49,257.701,39.001,257.701z"/>
			</g>
			<g>
				<path style="fill:#EDEFEE;" d="M110.333,389.738c-0.552,0-1-0.447-1-1v-19.405c0-0.553,0.448-1,1-1s1,0.447,1,1v19.405
					C111.333,389.291,110.886,389.738,110.333,389.738z"/>
			</g>
			<g>
				<path style="fill:#EDEFEE;" d="M110.333,397c-0.552,0-1-0.447-1-1v-3.333c0-0.553,0.448-1,1-1s1,0.447,1,1V396
					C111.333,396.553,110.886,397,110.333,397z"/>
			</g>
			<g>
				<path style="fill:#EDEFEE;" d="M103,354.026c-0.552,0-1-0.447-1-1v-8.359c0-0.553,0.448-1,1-1c0.552,0,1,0.447,1,1v8.359
					C104,353.579,103.552,354.026,103,354.026z"/>
			</g>
			<g>
				<path style="fill:#EDEFEE;" d="M129.666,382.755c-0.552,0-1-0.447-1-1V351c0-0.553,0.448-1,1-1c0.552,0,1,0.447,1,1v30.755
					C130.666,382.308,130.219,382.755,129.666,382.755z"/>
			</g>
			<g>
				<g>
					<path style="fill:#FFE4A9;" d="M204.356,469.861l19.245-21.383v-67.169h-4.599c-5.213,0-9.994,2.9-12.403,7.523l-13.731,26.349
						c-0.634,1.216-0.965,2.568-0.965,3.94v21.183c0,2.358-0.816,4.644-2.309,6.469l-4.483,5.479L204.356,469.861z"/>
					<path style="fill:#EBCB86;" d="M223.601,381.309h-4.599c-0.012,0-0.024,0.002-0.036,0.002
						c-0.473,0.001-0.945,0.028-1.412,0.078c-0.035,0.004-0.071,0.006-0.106,0.01c-0.039,0.004-0.079,0.006-0.118,0.011v0.009
						c-0.448,0.055-0.893,0.124-1.33,0.22v64.648l-16.9,18.763l5.26,4.81l19.24-21.38v-0.001l0.001-0.001V381.309z"/>
					<polygon style="fill:#174366;" points="214.51,490.38 200.47,505.92 187.79,519.95 111.18,519.95 157.85,468.29 171.89,452.75 
											"/>
					<polygon style="fill:#11324D;" points="214.51,490.38 200.47,505.92 157.85,468.29 171.89,452.75 					"/>
					<path style="fill:#11324D;" d="M224.48,488.21l-13.99,15.84c-1.84,2.09-5.02,2.28-7.1,0.44l-8.21-7.25l-35.92-31.71
						c-2.08-1.84-2.28-5.02-0.44-7.1l13.98-15.84c1.62-1.83,4.27-2.2,6.31-1.02c0.28,0.16,0.55,0.36,0.8,0.58l44.12,38.96
						C226.12,482.95,226.32,486.13,224.48,488.21z"/>
					<path style="fill:#174366;" d="M215.47,480.38l-13.99,15.84c-1.61,1.83-4.26,2.2-6.3,1.02l-35.92-31.71
						c-2.08-1.84-2.28-5.02-0.44-7.1l13.98-15.84c1.62-1.83,4.27-2.2,6.31-1.02l35.92,31.71
						C217.11,475.12,217.31,478.3,215.47,480.38z"/>
					<g>
						<path style="fill:#EDEFEE;" d="M165.499,464.5c-0.24,0-0.48-0.086-0.672-0.26c-0.409-0.372-0.438-1.004-0.067-1.413
							l13.18-14.5c0.372-0.407,1.003-0.438,1.413-0.067c0.409,0.372,0.438,1.004,0.067,1.413l-13.18,14.5
							C166.042,464.39,165.771,464.5,165.499,464.5z"/>
					</g>
					<g>
						<path style="fill:#EDEFEE;" d="M144.499,495c-0.241,0-0.483-0.087-0.675-0.263c-0.407-0.373-0.435-1.006-0.062-1.413
							l16-17.466c0.373-0.405,1.005-0.435,1.413-0.061c0.407,0.373,0.435,1.006,0.062,1.413l-16,17.466
							C145.04,494.891,144.77,495,144.499,495z"/>
					</g>
					<g>
						<path style="fill:#EDEFEE;" d="M196.496,441.892c-0.552,0-1-0.447-1-1v-15.307c0-0.553,0.448-1,1-1c0.552,0,1,0.447,1,1
							v15.307C197.496,441.444,197.048,441.892,196.496,441.892z"/>
					</g>
				</g>
				<g>
					<g>
						<g>
							<path style="fill:#174366;" d="M288.38,449.4h-59.154c-6.391,0-11.572-5.181-11.572-11.572V311.54
								c0-6.391,5.181-11.572,11.572-11.572h59.154c6.391,0,11.572,5.181,11.572,11.572v126.288
								C299.952,444.219,294.771,449.4,288.38,449.4z"/>
							<path style="fill:#11324D;" d="M291.667,300.449V448.92c4.789-1.417,8.285-5.843,8.285-11.092V311.54
								C299.952,306.292,296.455,301.866,291.667,300.449z"/>
							<path style="fill:#53D9DA;" d="M229.226,432.396c-1.942,0-3.522-1.58-3.522-3.522V322.609c0-1.942,1.58-3.522,3.522-3.522
								h59.154c1.942,0,3.522,1.58,3.522,3.522v106.265c0,1.942-1.58,3.522-3.522,3.522H229.226z"/>
							<path style="fill:#3BBEBF;" d="M288.38,319.087H259.5v113.309h28.88c1.942,0,3.522-1.58,3.522-3.522V322.609
								C291.902,320.668,290.322,319.087,288.38,319.087z"/>
							<path style="fill:#FFCA26;" d="M276.304,365.376h-34.213c-5.002,0-9.057-4.055-9.057-9.057l0,0
								c0-5.002,4.055-9.056,9.057-9.056h34.213c5.002,0,9.057,4.055,9.057,9.056l0,0
								C285.361,361.322,281.306,365.376,276.304,365.376z"/>
							<path style="fill:#F5B41D;" d="M276.304,347.263H259.5v18.113h16.804c5.002,0,9.057-4.055,9.057-9.057
								C285.361,351.318,281.306,347.263,276.304,347.263z"/>
							<path style="fill:#FF3938;" d="M276.304,392.797h-34.213c-5.002,0-9.057-4.055-9.057-9.056l0,0
								c0-5.002,4.055-9.057,9.057-9.057h34.213c5.002,0,9.057,4.055,9.057,9.057l0,0
								C285.361,388.743,281.306,392.797,276.304,392.797z"/>
							<path style="fill:#E33332;" d="M276.304,374.684H259.25v18.113h17.054c5.002,0,9.057-4.055,9.057-9.056
								C285.361,378.739,281.306,374.684,276.304,374.684z"/>
							<path style="fill:#53D9DA;" d="M264.79,443.85h-11.185c-1.635,0-2.961-1.326-2.961-2.961l0,0
								c0-1.635,1.326-2.961,2.961-2.961h11.185c1.635,0,2.961,1.326,2.961,2.961l0,0C267.751,442.525,266.425,443.85,264.79,443.85
								z"/>
							<path style="fill:#53D9DA;" d="M264.79,312.547h-11.185c-1.635,0-2.961-1.326-2.961-2.961l0,0
								c0-1.635,1.326-2.961,2.961-2.961h11.185c1.635,0,2.961,1.326,2.961,2.961l0,0
								C267.751,311.221,266.425,312.547,264.79,312.547z"/>
							<text transform="matrix(1 0 0 1 248.7544 361.125)" style="fill:#174366; font-family:'Bebas'; font-size:12.0753px;">BUY</text>
							<text transform="matrix(1 0 0 1 247.5518 388.5449)" style="fill:#174366; font-family:'Bebas'; font-size:12.0753px;">SELL</text>
						</g>
						<g>
							<path style="fill:#EDEFEE;" d="M221.666,325.738c-0.552,0-1-0.447-1-1v-12.405c0-0.553,0.448-1,1-1c0.552,0,1,0.447,1,1
								v12.405C222.666,325.291,222.219,325.738,221.666,325.738z"/>
						</g>
						<g>
							<path style="fill:#EDEFEE;" d="M222,333.349c-0.552,0-1-0.447-1-1v-3.682c0-0.553,0.448-1,1-1c0.552,0,1,0.447,1,1v3.682
								C223,332.901,222.552,333.349,222,333.349z"/>
						</g>
						<g>
							<path style="fill:#EDEFEE;" d="M229.333,381.681c-0.552,0-1-0.447-1-1v-36.348c0-0.553,0.448-1,1-1s1,0.447,1,1v36.348
								C230.333,381.233,229.886,381.681,229.333,381.681z"/>
						</g>
						<g>
							<path style="fill:#EDEFEE;" d="M229.333,394.718c-0.552,0-1-0.447-1-1v-8.007c0-0.553,0.448-1,1-1s1,0.447,1,1v8.007
								C230.333,394.271,229.886,394.718,229.333,394.718z"/>
						</g>
					</g>
					<g>
						<path style="fill:#EBCB86;" d="M220.457,418.75v-14.468c0-3.256-2.509-6.096-5.764-6.194c-3.368-0.101-6.13,2.599-6.13,5.944
							v2.823C208.563,413.425,213.888,418.75,220.457,418.75L220.457,418.75z"/>
						<path style="fill:#FFE4A9;" d="M211.706,430.635L211.706,430.635v-26.962c0-3.284,2.663-5.947,5.947-5.947l0,0
							c3.285,0,5.947,2.663,5.947,5.947v15.068C223.601,425.31,218.275,430.635,211.706,430.635z"/>
					</g>
				</g>
				<g>
					<polygon style="fill:#11324D;" points="383.85,519.95 323.24,519.95 318.46,507.02 312.14,489.94 311.28,487.61 364.33,467.16 
						371.52,486.6 					"/>
					<polygon style="fill:#174366;" points="375.82,519.95 323.24,519.95 318.46,507.02 312.14,489.94 358.17,472.2 365.36,491.64 
											"/>
					<path style="fill:#FFE4A9;" d="M360.71,457.77l-53.05,20.45c-1.15-2.98-3.25-5.49-5.98-7.15l-0.03-0.02
						c-2.73-1.65-4.83-4.17-5.98-7.15l-1.8-5.46l-15.24-6.76c-3.17-1.41-4.51-5.26-2.76-8.37c1.52-2.71,4.98-3.66,7.82-2.4
						l11.94,5.29l-18.98-48.41c-0.73-1.9-0.42-3.95,0.65-5.51c0.69-1,1.69-1.81,2.93-2.24c3.07-1.08,6.44,0.66,7.61,3.7l9.73,25.24
						c0.24,0.62,0.82,0.99,1.45,0.99c0.18,0,0.37-0.03,0.55-0.1c0.79-0.31,1.19-1.21,0.88-2l-3.95-10.25
						c-1.2-3.12,0.4-6.64,3.58-7.75c3.08-1.08,6.44,0.66,7.61,3.7l3.86,10.02c0.24,0.62,0.82,0.99,1.45,0.99
						c0.18,0,0.37-0.03,0.55-0.1c0.8-0.31,1.19-1.21,0.89-2l-2.01-5.22c-1.21-3.12,0.4-6.63,3.58-7.75c3.07-1.08,6.43,0.67,7.6,3.71
						l1.93,4.98c0.23,0.61,0.82,0.99,1.44,0.99c0.18,0,0.37-0.04,0.55-0.11c0.8-0.3,1.2-1.2,0.89-1.99l-0.8-2.09
						c-1.21-3.12,0.4-6.63,3.58-7.75c3.07-1.08,6.43,0.67,7.6,3.7L360.71,457.77z"/>
					<path style="fill:#EBCB86;" d="M277.95,444.19c-1.76,3.12-0.42,7,2.78,8.42l-2.1-0.93c-3.17-1.41-4.51-5.26-2.76-8.37
						c1.52-2.71,4.98-3.66,7.82-2.4l1.34,0.59C282.35,440.7,279.34,441.71,277.95,444.19z"/>
					<path style="fill:#EBCB86;" d="M287.84,393.74l0.77,1.98c-1.19-3.02-4.53-4.75-7.6-3.67c-3.12,1.1-4.73,4.52-3.63,7.6
						l-0.73-1.86c-1.2-3.12,0.4-6.64,3.58-7.75C283.3,388.96,286.67,390.7,287.84,393.74z"/>
					<path style="fill:#EBCB86;" d="M307.69,403.57l0.76,1.97c-1.19-3.01-4.53-4.73-7.58-3.66c-3.18,1.12-4.79,4.63-3.58,7.76
						l3.95,10.24c0.3,0.8-0.09,1.7-0.89,2c-0.18,0.07-0.37,0.11-0.56,0.11c-0.62,0-1.2-0.38-1.44-0.99l-0.77-2.01
						c0.24,0.61,0.81,0.98,1.44,0.98c0.18,0,0.37-0.03,0.55-0.1c0.79-0.31,1.19-1.21,0.88-2l-3.95-10.25
						c-1.2-3.12,0.4-6.64,3.58-7.75C303.16,398.79,306.52,400.53,307.69,403.57z"/>
					<path style="fill:#EBCB86;" d="M315.22,414.49c0.31,0.8-0.09,1.69-0.89,2c-0.18,0.07-0.37,0.11-0.55,0.11
						c-0.62,0-1.21-0.38-1.44-0.99l-0.75-1.93c0.26,0.57,0.81,0.9,1.41,0.9c0.18,0,0.37-0.03,0.55-0.1c0.8-0.31,1.19-1.21,0.89-2
						L315.22,414.49z"/>
					<path style="fill:#EBCB86;" d="M323.61,403.22l0.68,1.76c-1.25-2.89-4.52-4.5-7.5-3.45c-3.18,1.11-4.78,4.63-3.58,7.75
						l-0.78-2.02c-1.21-3.12,0.4-6.63,3.58-7.75C319.08,398.43,322.44,400.18,323.61,403.22z"/>
					<path style="fill:#EBCB86;" d="M329.2,409.1c0.31,0.8-0.09,1.69-0.88,2c-0.18,0.07-0.37,0.1-0.56,0.1
						c-0.62,0-1.2-0.37-1.44-0.99l-0.75-1.94c0.25,0.57,0.81,0.92,1.41,0.92c0.18,0,0.37-0.04,0.55-0.11c0.8-0.3,1.2-1.2,0.89-1.99
						L329.2,409.1z"/>
					<path style="fill:#EBCB86;" d="M339.49,402.73c-1.25-2.89-4.52-4.51-7.51-3.46c-3.18,1.11-4.78,4.63-3.58,7.75l-0.78-2.02
						c-1.21-3.12,0.4-6.63,3.58-7.75c3.07-1.08,6.43,0.67,7.6,3.7L339.49,402.73z"/>
					<path style="fill:#EBCB86;" d="M308.47,405.59l3.12,8.09c-0.01-0.03-0.03-0.06-0.04-0.09L308.47,405.59z"/>
					<path style="fill:#EBCB86;" d="M325.54,408.2l-1.25-3.22c0.04,0.08,0.08,0.16,0.11,0.25L325.54,408.2z"/>
					<path style="fill:#EBCB86;" d="M304.379,473.192c1.424,1.42,2.549,3.128,3.281,5.028l53.048-20.453l-2.065-5.357
						L304.379,473.192z"/>
					<path style="fill:#11324D;" d="M371.52,486.6l-52.57,20.26c-0.16,0.06-0.33,0.12-0.49,0.16l-7.18-19.41l53.05-20.45
						L371.52,486.6z"/>
					<path style="fill:#EBCB86;" d="M295.63,446.2l-18.98-48.41c-0.73-1.9-0.42-3.95,0.65-5.51l20.7,50.65
						C298.67,444.56,297.39,446.33,295.63,446.2z"/>
					<path style="fill:#11324D;" d="M371.72,483.54l-54.92,21.17c-0.19,0.07-0.39,0.14-0.58,0.18c-2.44,0.62-5-0.66-5.93-3.06
						l-7.6-19.72c-1-2.59,0.29-5.5,2.89-6.5l42.44-16.37l12.48-4.81c2.59-1,5.51,0.29,6.51,2.89l7.6,19.71
						C375.61,479.63,374.32,482.54,371.72,483.54z"/>
					<path style="fill:#174366;" d="M358.64,488.54l-42.42,16.35c-2.44,0.62-5-0.66-5.93-3.06l-7.6-19.72c-1-2.59,0.29-5.5,2.89-6.5
						l42.44-16.37c2.43-0.6,4.99,0.68,5.91,3.08l7.6,19.71C362.53,484.63,361.24,487.54,358.64,488.54z"/>
					<g>
						<path style="fill:#EDEFEE;" d="M304.771,467.451c-0.138,0-0.278-0.028-0.412-0.089c-4.07-1.845-6.985-6.082-7.252-10.544
							c-0.033-0.551,0.387-1.024,0.939-1.058c0.551-0.023,1.025,0.387,1.058,0.938c0.224,3.741,2.668,7.294,6.082,8.841
							c0.503,0.229,0.726,0.821,0.498,1.324C305.516,467.233,305.152,467.451,304.771,467.451z"/>
					</g>
					<g>
						<path style="fill:#EDEFEE;" d="M313.529,492.74c-0.405,0-0.786-0.248-0.937-0.649l-1.547-4.13
							c-0.193-0.517,0.068-1.093,0.586-1.287c0.514-0.192,1.094,0.067,1.287,0.586l1.547,4.13c0.193,0.518-0.068,1.094-0.586,1.287
							C313.765,492.72,313.645,492.74,313.529,492.74z"/>
					</g>
					<g>
						<path style="fill:#EDEFEE;" d="M349,441.36c-0.404,0-0.785-0.247-0.937-0.648l-12.5-33.271
							c-0.193-0.517,0.067-1.094,0.585-1.288c0.512-0.192,1.093,0.067,1.288,0.585l12.5,33.27c0.193,0.517-0.067,1.094-0.585,1.288
							C349.236,441.34,349.117,441.36,349,441.36z"/>
					</g>
				</g>
			</g>
		</g>
	</g>
</g>
<g id="DESIGNED_BY_FREEPIK">
	<g id="XMLID_76_">
		<g id="XMLID_929_">
			<path id="XMLID_958_" style="fill:#EDEFEE;" d="M181.087,472.134c-0.246,0-0.435,0.085-0.567,0.255
				c-0.133,0.17-0.199,0.421-0.199,0.753v2.393c-0.304-0.332-0.617-0.579-0.937-0.739c-0.321-0.159-0.715-0.24-1.182-0.24
				c-0.807,0-1.458,0.283-1.953,0.849c-0.494,0.566-0.742,1.355-0.742,2.369c0,0.479,0.063,0.923,0.188,1.335
				c0.124,0.412,0.307,0.77,0.549,1.074c0.241,0.305,0.526,0.539,0.858,0.703c0.33,0.164,0.689,0.246,1.078,0.246
				c0.293,0,0.563-0.04,0.809-0.122c0.248-0.08,0.477-0.199,0.689-0.356c0.212-0.155,0.426-0.358,0.644-0.607v0.16
				c0,0.297,0.072,0.525,0.217,0.685c0.145,0.16,0.328,0.24,0.549,0.24c0.226,0,0.409-0.077,0.552-0.231
				c0.143-0.154,0.213-0.386,0.213-0.694v-7.147c0-0.305-0.066-0.534-0.199-0.69C181.521,472.212,181.332,472.134,181.087,472.134z
				 M180.022,478.975c-0.141,0.306-0.329,0.533-0.563,0.682c-0.236,0.148-0.496,0.223-0.781,0.223c-0.28,0-0.539-0.078-0.777-0.236
				c-0.237-0.154-0.424-0.387-0.561-0.695c-0.136-0.31-0.205-0.683-0.205-1.122c0-0.415,0.063-0.78,0.193-1.096
				c0.128-0.314,0.31-0.556,0.543-0.724c0.233-0.168,0.499-0.252,0.795-0.252c0.285,0,0.547,0.082,0.787,0.245
				c0.239,0.165,0.429,0.402,0.569,0.713c0.141,0.311,0.21,0.682,0.21,1.113C180.232,478.283,180.163,478.667,180.022,478.975z"/>
			<path id="XMLID_954_" style="fill:#EDEFEE;" d="M188.452,478.054c0.233-0.122,0.35-0.385,0.35-0.793
				c0-0.438-0.113-0.87-0.338-1.294c-0.225-0.423-0.564-0.769-1.019-1.035c-0.453-0.268-0.996-0.399-1.628-0.399
				c-0.487,0-0.93,0.077-1.33,0.233c-0.4,0.156-0.737,0.381-1.01,0.674c-0.272,0.293-0.48,0.643-0.623,1.054
				c-0.143,0.409-0.213,0.853-0.213,1.332c0,1.017,0.289,1.822,0.867,2.415c0.577,0.593,1.387,0.891,2.427,0.891
				c0.455,0,0.858-0.06,1.207-0.178c0.352-0.12,0.641-0.268,0.873-0.448c0.231-0.181,0.404-0.368,0.519-0.565
				c0.115-0.196,0.172-0.366,0.172-0.514c0-0.166-0.052-0.294-0.155-0.386c-0.103-0.09-0.237-0.137-0.403-0.137
				c-0.154,0-0.273,0.036-0.356,0.107c-0.203,0.19-0.366,0.34-0.492,0.451c-0.127,0.111-0.265,0.216-0.416,0.313
				c-0.15,0.098-0.305,0.167-0.466,0.214c-0.16,0.044-0.337,0.067-0.531,0.067c-0.289,0-0.553-0.07-0.792-0.213
				c-0.239-0.143-0.432-0.355-0.576-0.636c-0.145-0.281-0.219-0.605-0.222-0.974h3.168
				C187.89,478.234,188.219,478.174,188.452,478.054z M184.298,477.315c0.055-0.547,0.212-0.96,0.472-1.238
				c0.259-0.28,0.59-0.418,0.994-0.418c0.423,0,0.764,0.137,1.024,0.411c0.259,0.275,0.409,0.69,0.448,1.245H184.298z"/>
			<path id="XMLID_952_" style="fill:#EDEFEE;" d="M193.879,477.617c-0.319-0.17-0.729-0.316-1.231-0.439
				c-0.424-0.104-0.756-0.19-0.997-0.261c-0.242-0.07-0.434-0.161-0.576-0.27c-0.143-0.108-0.213-0.247-0.213-0.418
				c0-0.186,0.097-0.342,0.291-0.465c0.194-0.126,0.437-0.188,0.73-0.188c0.286,0,0.511,0.047,0.677,0.142
				c0.166,0.096,0.31,0.223,0.433,0.381c0.151,0.189,0.284,0.331,0.401,0.426c0.116,0.096,0.258,0.144,0.424,0.144
				c0.23,0,0.407-0.061,0.532-0.178c0.124-0.119,0.186-0.271,0.186-0.457c0-0.171-0.058-0.345-0.175-0.523
				c-0.116-0.178-0.286-0.34-0.51-0.485c-0.223-0.147-0.502-0.265-0.837-0.351c-0.333-0.088-0.71-0.131-1.13-0.131
				c-0.535,0-0.99,0.085-1.367,0.259c-0.378,0.172-0.665,0.402-0.859,0.69c-0.194,0.289-0.291,0.597-0.291,0.92
				c0,0.364,0.105,0.671,0.315,0.921c0.21,0.249,0.489,0.45,0.839,0.602c0.351,0.152,0.804,0.298,1.362,0.435
				c0.494,0.12,0.849,0.244,1.066,0.375c0.216,0.131,0.323,0.338,0.323,0.622c0,0.187-0.104,0.352-0.311,0.497
				c-0.208,0.144-0.474,0.216-0.798,0.216c-0.4,0-0.715-0.07-0.947-0.213c-0.231-0.144-0.431-0.357-0.597-0.647
				c-0.082-0.149-0.169-0.267-0.261-0.351c-0.091-0.082-0.221-0.124-0.39-0.124c-0.194,0-0.355,0.064-0.481,0.19
				c-0.128,0.126-0.191,0.278-0.191,0.456c0,0.27,0.099,0.537,0.296,0.805c0.198,0.267,0.505,0.489,0.92,0.667
				c0.415,0.179,0.914,0.268,1.495,0.268c0.609,0,1.127-0.082,1.552-0.246c0.425-0.164,0.747-0.405,0.964-0.725
				c0.218-0.318,0.326-0.701,0.326-1.148c0-0.297-0.081-0.56-0.246-0.792C194.438,477.988,194.197,477.787,193.879,477.617z"/>
			<path id="XMLID_950_" style="fill:#EDEFEE;" d="M196.487,474.543c-0.238,0-0.431,0.081-0.579,0.243
				c-0.149,0.162-0.222,0.404-0.222,0.724v4.636c0,0.316,0.073,0.56,0.222,0.73c0.148,0.17,0.341,0.255,0.579,0.255
				c0.238,0,0.433-0.083,0.588-0.249c0.154-0.166,0.232-0.412,0.232-0.736v-4.683c0-0.288-0.078-0.515-0.232-0.677
				C196.92,474.624,196.724,474.543,196.487,474.543z"/>
			<path id="XMLID_949_" style="fill:#EDEFEE;" d="M196.505,472.204c-0.217,0-0.409,0.073-0.573,0.223
				c-0.164,0.149-0.246,0.337-0.246,0.567c0,0.254,0.08,0.449,0.24,0.588c0.16,0.138,0.353,0.208,0.579,0.208
				c0.217,0,0.405-0.071,0.564-0.212c0.158-0.14,0.238-0.335,0.238-0.584c0-0.258-0.081-0.453-0.244-0.588
				C196.9,472.272,196.715,472.204,196.505,472.204z"/>
			<path id="XMLID_945_" style="fill:#EDEFEE;" d="M203.626,474.543c-0.217,0-0.396,0.077-0.535,0.231
				c-0.139,0.154-0.208,0.372-0.208,0.652v0.221c-0.289-0.376-0.602-0.651-0.938-0.829c-0.337-0.175-0.734-0.264-1.193-0.264
				c-0.384,0-0.736,0.068-1.056,0.204c-0.321,0.138-0.604,0.34-0.849,0.609c-0.245,0.268-0.433,0.599-0.566,0.991
				c-0.133,0.392-0.199,0.831-0.199,1.317c0,0.653,0.108,1.228,0.327,1.728c0.217,0.498,0.529,0.886,0.934,1.163
				c0.406,0.276,0.88,0.415,1.422,0.415c0.45,0,0.839-0.091,1.166-0.272c0.327-0.182,0.614-0.447,0.864-0.797
				c-0.008,0.531-0.02,0.916-0.036,1.155c-0.016,0.24-0.07,0.465-0.164,0.674c-0.093,0.209-0.255,0.373-0.486,0.489
				c-0.232,0.117-0.557,0.176-0.977,0.176c-0.205,0-0.387-0.02-0.545-0.057c-0.159-0.038-0.294-0.095-0.406-0.171
				c-0.112-0.078-0.216-0.171-0.309-0.28c-0.093-0.108-0.183-0.217-0.27-0.323c-0.178-0.21-0.386-0.315-0.624-0.315
				c-0.189,0-0.352,0.062-0.486,0.188c-0.135,0.123-0.202,0.284-0.202,0.482c0,0.262,0.119,0.516,0.356,0.764
				c0.238,0.247,0.576,0.448,1.014,0.605c0.439,0.155,0.939,0.233,1.496,0.233c0.609,0,1.119-0.061,1.528-0.184
				c0.409-0.122,0.741-0.311,0.994-0.563c0.253-0.254,0.438-0.574,0.551-0.961c0.115-0.389,0.173-0.852,0.173-1.39v-4.706
				c0-0.384-0.051-0.678-0.155-0.882C204.146,474.646,203.939,474.543,203.626,474.543z M202.6,478.908
				c-0.151,0.291-0.346,0.508-0.586,0.653c-0.239,0.144-0.493,0.217-0.762,0.217c-0.455,0-0.826-0.168-1.113-0.505
				c-0.287-0.336-0.431-0.834-0.431-1.49c0-0.648,0.139-1.149,0.419-1.501c0.279-0.352,0.649-0.528,1.113-0.528
				c0.475,0,0.857,0.184,1.148,0.553c0.291,0.367,0.437,0.882,0.437,1.542C202.825,478.265,202.749,478.617,202.6,478.908z"/>
			<path id="XMLID_944_" style="fill:#EDEFEE;" d="M210.978,475.61c-0.165-0.339-0.417-0.602-0.753-0.788
				c-0.337-0.187-0.718-0.279-1.146-0.279c-0.439,0-0.828,0.088-1.166,0.264c-0.338,0.177-0.65,0.452-0.935,0.828v-0.195
				c0-0.193-0.034-0.358-0.104-0.493c-0.069-0.134-0.162-0.234-0.276-0.302c-0.114-0.068-0.244-0.102-0.387-0.102
				c-0.233,0-0.417,0.076-0.552,0.229c-0.134,0.152-0.201,0.383-0.201,0.691v4.683c0,0.316,0.076,0.56,0.226,0.73
				c0.15,0.17,0.342,0.255,0.576,0.255c0.241,0,0.438-0.082,0.59-0.246c0.152-0.164,0.228-0.411,0.228-0.739v-2.03
				c0-0.66,0.04-1.11,0.119-1.353c0.11-0.3,0.284-0.537,0.523-0.71c0.237-0.172,0.5-0.258,0.788-0.258
				c0.444,0,0.74,0.143,0.888,0.425c0.148,0.282,0.223,0.691,0.223,1.226v2.7c0,0.316,0.074,0.56,0.226,0.73
				c0.15,0.17,0.346,0.255,0.587,0.255c0.238,0,0.431-0.083,0.578-0.249c0.149-0.166,0.224-0.412,0.224-0.736v-3.016
				c0-0.357-0.017-0.648-0.048-0.878C211.155,476.023,211.086,475.809,210.978,475.61z"/>
			<path id="XMLID_939_" style="fill:#EDEFEE;" d="M217.822,478.054c0.233-0.122,0.35-0.385,0.35-0.793
				c0-0.438-0.113-0.87-0.338-1.294c-0.226-0.423-0.565-0.769-1.019-1.035c-0.453-0.268-0.996-0.399-1.628-0.399
				c-0.487,0-0.93,0.077-1.33,0.233c-0.4,0.156-0.736,0.381-1.009,0.674c-0.274,0.293-0.481,0.643-0.624,1.054
				c-0.142,0.409-0.213,0.853-0.213,1.332c0,1.017,0.289,1.822,0.866,2.415c0.578,0.593,1.387,0.891,2.428,0.891
				c0.455,0,0.858-0.06,1.208-0.178c0.351-0.12,0.64-0.268,0.872-0.448c0.232-0.181,0.405-0.368,0.52-0.565
				c0.114-0.196,0.172-0.366,0.172-0.514c0-0.166-0.051-0.294-0.154-0.386c-0.103-0.09-0.238-0.137-0.404-0.137
				c-0.154,0-0.273,0.036-0.357,0.107c-0.201,0.19-0.366,0.34-0.492,0.451c-0.128,0.111-0.266,0.216-0.415,0.313
				c-0.151,0.098-0.307,0.167-0.466,0.214c-0.161,0.044-0.338,0.067-0.532,0.067c-0.288,0-0.553-0.07-0.792-0.213
				c-0.239-0.143-0.431-0.355-0.575-0.636c-0.145-0.281-0.219-0.605-0.223-0.974h3.169
				C217.26,478.234,217.588,478.174,217.822,478.054z M213.667,477.315c0.056-0.547,0.212-0.96,0.471-1.238
				c0.259-0.28,0.591-0.418,0.995-0.418c0.423,0,0.765,0.137,1.024,0.411c0.259,0.275,0.409,0.69,0.448,1.245H213.667z"/>
			<path id="XMLID_936_" style="fill:#EDEFEE;" d="M224.207,472.134c-0.245,0-0.434,0.085-0.567,0.255
				c-0.132,0.17-0.199,0.421-0.199,0.753v2.393c-0.304-0.332-0.617-0.579-0.938-0.739c-0.32-0.159-0.714-0.24-1.181-0.24
				c-0.808,0-1.458,0.283-1.953,0.849c-0.495,0.566-0.741,1.355-0.741,2.369c0,0.479,0.062,0.923,0.187,1.335
				c0.124,0.412,0.308,0.77,0.549,1.074c0.241,0.305,0.527,0.539,0.857,0.703c0.33,0.164,0.689,0.246,1.077,0.246
				c0.293,0,0.563-0.04,0.81-0.122c0.248-0.08,0.476-0.199,0.689-0.356c0.211-0.155,0.426-0.358,0.643-0.607v0.16
				c0,0.297,0.072,0.525,0.217,0.685c0.145,0.16,0.328,0.24,0.549,0.24c0.226,0,0.41-0.077,0.552-0.231
				c0.143-0.154,0.213-0.386,0.213-0.694v-7.147c0-0.305-0.065-0.534-0.199-0.69C224.641,472.212,224.452,472.134,224.207,472.134z
				 M223.141,478.975c-0.14,0.306-0.328,0.533-0.564,0.682c-0.235,0.148-0.495,0.223-0.781,0.223c-0.281,0-0.54-0.078-0.776-0.236
				c-0.238-0.154-0.425-0.387-0.562-0.695c-0.137-0.31-0.205-0.683-0.205-1.122c0-0.415,0.064-0.78,0.193-1.096
				c0.129-0.314,0.31-0.556,0.543-0.724c0.233-0.168,0.499-0.252,0.795-0.252c0.285,0,0.547,0.082,0.787,0.245
				c0.239,0.165,0.43,0.402,0.57,0.713c0.14,0.311,0.211,0.682,0.211,1.113C223.352,478.283,223.282,478.667,223.141,478.975z"/>
			<path id="XMLID_933_" style="fill:#EDEFEE;" d="M233.586,474.938c-0.406-0.255-0.877-0.383-1.416-0.383
				c-0.467,0-0.859,0.084-1.175,0.252c-0.317,0.168-0.627,0.411-0.932,0.728v-2.476c0-0.297-0.068-0.524-0.202-0.686
				c-0.135-0.159-0.326-0.239-0.576-0.239c-0.237,0-0.423,0.084-0.555,0.252c-0.133,0.168-0.198,0.416-0.198,0.744v7.075
				c0,0.305,0.068,0.535,0.205,0.692c0.136,0.156,0.319,0.233,0.549,0.233c0.226,0,0.412-0.077,0.558-0.233
				c0.146-0.157,0.22-0.388,0.22-0.692v-0.16c0.178,0.205,0.322,0.36,0.43,0.463c0.109,0.103,0.241,0.203,0.395,0.3
				c0.154,0.098,0.341,0.175,0.561,0.234c0.22,0.06,0.454,0.089,0.704,0.089c0.407,0,0.781-0.082,1.119-0.246
				c0.338-0.164,0.626-0.397,0.864-0.698c0.237-0.3,0.418-0.655,0.543-1.064c0.124-0.41,0.187-0.859,0.187-1.35
				c0-0.665-0.112-1.241-0.336-1.725C234.305,475.564,233.991,475.193,233.586,474.938z M232.797,479.348
				c-0.295,0.354-0.646,0.531-1.053,0.531c-0.479,0-0.866-0.174-1.161-0.521c-0.295-0.346-0.442-0.841-0.442-1.486
				c0-0.44,0.069-0.818,0.208-1.136c0.138-0.319,0.328-0.563,0.57-0.73c0.24-0.168,0.516-0.252,0.825-0.252
				c0.3,0,0.563,0.084,0.79,0.252c0.225,0.168,0.399,0.406,0.521,0.716c0.123,0.308,0.184,0.677,0.184,1.103
				C233.239,478.486,233.091,478.993,232.797,479.348z"/>
			<path id="XMLID_931_" style="fill:#EDEFEE;" d="M240.53,474.641c-0.112-0.065-0.229-0.098-0.353-0.098
				c-0.171,0-0.302,0.029-0.395,0.09c-0.093,0.058-0.181,0.173-0.264,0.344c-0.083,0.17-0.176,0.406-0.279,0.705l-1.3,3.71
				l-1.371-3.988c-0.091-0.277-0.195-0.489-0.314-0.638c-0.119-0.148-0.295-0.223-0.529-0.223c-0.135,0-0.264,0.035-0.389,0.107
				c-0.125,0.07-0.222,0.166-0.294,0.285c-0.071,0.117-0.107,0.246-0.107,0.385c0,0.131,0.061,0.341,0.184,0.629l1.995,5.022
				l-0.148,0.362c-0.111,0.265-0.208,0.466-0.294,0.601c-0.085,0.139-0.181,0.234-0.288,0.289c-0.107,0.056-0.254,0.084-0.44,0.084
				c-0.075,0-0.163-0.013-0.266-0.036c-0.083-0.024-0.168-0.036-0.256-0.036c-0.221,0-0.388,0.051-0.501,0.151
				c-0.113,0.101-0.169,0.245-0.169,0.431c0,0.272,0.119,0.461,0.356,0.564c0.237,0.103,0.593,0.153,1.068,0.153
				c0.487,0,0.873-0.073,1.161-0.223c0.287-0.147,0.517-0.361,0.691-0.638c0.174-0.277,0.353-0.659,0.535-1.146l2.113-5.531
				c0.051-0.143,0.095-0.283,0.13-0.421c0.037-0.14,0.061-0.246,0.078-0.321c0-0.123-0.032-0.239-0.093-0.35
				C240.73,474.794,240.642,474.706,240.53,474.641z"/>
		</g>
		<g id="XMLID_365_">
			<g id="XMLID_380_">
				<path id="XMLID_928_" style="fill:#EDEFEE;" d="M262.93,472.129c-0.533,0-0.954,0.068-1.26,0.204
					c-0.308,0.137-0.527,0.354-0.654,0.652c-0.13,0.301-0.191,0.702-0.191,1.211v0.487h-0.387c-0.543,0-0.814,0.191-0.814,0.582
					c0,0.174,0.065,0.315,0.196,0.423c0.132,0.111,0.316,0.164,0.559,0.164h0.446v4.294c0,0.318,0.074,0.563,0.228,0.729
					c0.154,0.17,0.344,0.254,0.573,0.254c0.243,0,0.438-0.084,0.589-0.254c0.155-0.167,0.23-0.411,0.23-0.729v-4.294h0.396
					c0.291,0,0.517-0.035,0.681-0.107c0.166-0.071,0.245-0.24,0.245-0.503c0-0.373-0.306-0.559-0.926-0.559h-0.396v-0.387
					c0-0.321,0.043-0.567,0.122-0.739c0.087-0.172,0.273-0.26,0.565-0.26c0.108,0,0.241,0.014,0.39,0.034
					c0.155,0.026,0.268,0.038,0.33,0.038c0.134,0,0.252-0.055,0.348-0.16c0.102-0.107,0.15-0.235,0.15-0.385
					C264.35,472.358,263.879,472.129,262.93,472.129z"/>
				<path id="XMLID_926_" style="fill:#EDEFEE;" d="M268.089,474.795c-0.32-0.171-0.647-0.255-0.99-0.255
					c-0.342,0-0.61,0.084-0.818,0.255c-0.202,0.171-0.4,0.421-0.592,0.755c-0.015-0.334-0.08-0.584-0.199-0.755
					c-0.119-0.171-0.313-0.255-0.583-0.255c-0.525,0-0.788,0.364-0.788,1.093v4.514c0,0.323,0.078,0.568,0.226,0.732
					c0.149,0.169,0.34,0.251,0.579,0.251c0.236,0,0.432-0.081,0.586-0.247c0.15-0.163,0.233-0.41,0.233-0.736v-1.356
					c0-0.486,0.014-0.899,0.045-1.238c0.033-0.337,0.09-0.631,0.17-0.878c0.084-0.243,0.201-0.425,0.353-0.554
					c0.15-0.122,0.345-0.186,0.582-0.186c0.172,0,0.374,0.036,0.602,0.108c0.227,0.073,0.371,0.112,0.434,0.112
					c0.157,0,0.304-0.064,0.44-0.194c0.135-0.126,0.204-0.292,0.204-0.488C268.572,475.192,268.411,474.966,268.089,474.795z"/>
				<path id="XMLID_922_" style="fill:#EDEFEE;" d="M274.176,478.052c0.233-0.122,0.351-0.385,0.351-0.791
					c0-0.44-0.112-0.87-0.339-1.296c-0.222-0.423-0.565-0.77-1.018-1.033c-0.453-0.27-0.997-0.403-1.629-0.403
					c-0.488,0-0.931,0.078-1.329,0.232c-0.402,0.157-0.735,0.381-1.008,0.675c-0.275,0.295-0.484,0.644-0.624,1.055
					c-0.145,0.41-0.218,0.854-0.218,1.333c0,1.017,0.293,1.823,0.87,2.418c0.576,0.593,1.385,0.889,2.429,0.889
					c0.453,0,0.858-0.061,1.207-0.179c0.349-0.117,0.64-0.269,0.874-0.446c0.232-0.182,0.404-0.368,0.521-0.566
					c0.111-0.194,0.167-0.365,0.167-0.512c0-0.167-0.048-0.294-0.152-0.386c-0.104-0.093-0.237-0.139-0.405-0.139
					c-0.152,0-0.271,0.038-0.355,0.108c-0.202,0.189-0.367,0.34-0.493,0.449c-0.128,0.113-0.264,0.218-0.415,0.313
					c-0.15,0.097-0.307,0.17-0.466,0.213c-0.16,0.048-0.336,0.069-0.531,0.069c-0.29,0-0.552-0.07-0.792-0.212
					c-0.24-0.145-0.431-0.357-0.578-0.636c-0.145-0.28-0.216-0.606-0.222-0.974h3.171
					C273.615,478.233,273.943,478.173,274.176,478.052z M270.021,477.313c0.055-0.546,0.213-0.957,0.472-1.236
					c0.26-0.28,0.592-0.418,0.995-0.418c0.426,0,0.764,0.136,1.024,0.412c0.261,0.273,0.407,0.688,0.446,1.242H270.021z"/>
				<path id="XMLID_919_" style="fill:#EDEFEE;" d="M280.916,478.052c0.231-0.122,0.352-0.385,0.352-0.791
					c0-0.44-0.116-0.87-0.341-1.296c-0.222-0.423-0.564-0.77-1.013-1.033c-0.46-0.27-1.003-0.403-1.634-0.403
					c-0.486,0-0.932,0.078-1.33,0.232c-0.4,0.157-0.736,0.381-1.009,0.675c-0.273,0.295-0.48,0.644-0.622,1.055
					c-0.145,0.41-0.218,0.854-0.218,1.333c0,1.017,0.291,1.823,0.868,2.418c0.58,0.593,1.387,0.889,2.43,0.889
					c0.453,0,0.859-0.061,1.208-0.179c0.348-0.117,0.641-0.269,0.872-0.446c0.234-0.182,0.408-0.368,0.519-0.566
					c0.116-0.194,0.171-0.365,0.171-0.512c0-0.167-0.047-0.294-0.15-0.386c-0.105-0.093-0.238-0.139-0.406-0.139
					c-0.151,0-0.27,0.038-0.355,0.108c-0.202,0.189-0.367,0.34-0.492,0.449c-0.127,0.113-0.264,0.218-0.415,0.313
					c-0.152,0.097-0.307,0.17-0.469,0.213c-0.157,0.048-0.335,0.069-0.527,0.069c-0.291,0-0.556-0.07-0.795-0.212
					c-0.238-0.145-0.431-0.357-0.575-0.636c-0.144-0.28-0.218-0.606-0.222-0.974h3.17
					C280.355,478.233,280.682,478.173,280.916,478.052z M276.762,477.313c0.053-0.546,0.211-0.957,0.47-1.236
					c0.261-0.28,0.592-0.418,0.995-0.418c0.425,0,0.764,0.136,1.026,0.412c0.257,0.273,0.407,0.688,0.446,1.242H276.762z"/>
				<path id="XMLID_390_" style="fill:#EDEFEE;" d="M286.927,474.938c-0.42-0.257-0.883-0.387-1.379-0.387
					c-0.415,0-0.79,0.09-1.114,0.268c-0.331,0.176-0.648,0.452-0.952,0.827v-0.194c0-0.297-0.071-0.52-0.218-0.678
					c-0.144-0.155-0.329-0.233-0.56-0.233c-0.233,0-0.419,0.078-0.554,0.228c-0.133,0.154-0.199,0.382-0.199,0.691v6.995
					c0,0.354,0.051,0.62,0.146,0.807c0.102,0.183,0.301,0.274,0.607,0.274c0.517,0,0.777-0.358,0.777-1.068v-2.434
					c0.286,0.358,0.586,0.635,0.9,0.817c0.314,0.187,0.704,0.279,1.166,0.279c0.385,0,0.741-0.076,1.079-0.228
					c0.334-0.152,0.622-0.372,0.868-0.653c0.245-0.283,0.44-0.632,0.58-1.05c0.14-0.418,0.21-0.878,0.21-1.376
					c0-0.677-0.122-1.261-0.366-1.758C287.676,475.571,287.346,475.195,286.927,474.938z M286.45,478.94
					c-0.137,0.313-0.32,0.546-0.552,0.704c-0.229,0.153-0.48,0.233-0.748,0.233c-0.454,0-0.828-0.179-1.133-0.536
					c-0.307-0.358-0.46-0.862-0.46-1.504c0-0.687,0.155-1.204,0.462-1.558c0.307-0.35,0.685-0.527,1.131-0.527
					c0.281,0,0.54,0.083,0.769,0.247c0.23,0.163,0.411,0.398,0.542,0.705c0.13,0.306,0.196,0.674,0.196,1.101
					C286.658,478.248,286.589,478.627,286.45,478.94z"/>
				<path id="XMLID_389_" style="fill:#EDEFEE;" d="M289.901,474.54c-0.238,0-0.428,0.079-0.58,0.244
					c-0.146,0.163-0.222,0.403-0.222,0.722v4.642c0,0.313,0.076,0.555,0.222,0.729c0.152,0.17,0.342,0.254,0.58,0.254
					c0.238,0,0.432-0.082,0.588-0.251c0.154-0.164,0.231-0.409,0.231-0.731v-4.688c0-0.286-0.077-0.512-0.231-0.675
					C290.332,474.619,290.139,474.54,289.901,474.54z"/>
				<path id="XMLID_388_" style="fill:#EDEFEE;" d="M289.917,472.199c-0.217,0-0.407,0.076-0.571,0.223
					c-0.166,0.149-0.247,0.339-0.247,0.568c0,0.253,0.08,0.447,0.242,0.586c0.158,0.138,0.35,0.209,0.576,0.209
					c0.22,0,0.408-0.071,0.566-0.21c0.157-0.14,0.236-0.335,0.236-0.585c0-0.257-0.082-0.454-0.244-0.591
					C290.315,472.267,290.13,472.199,289.917,472.199z"/>
				<path id="XMLID_387_" style="fill:#EDEFEE;" d="M297.258,479.569l-1.662-2.614l0.861-0.788c0.437-0.395,0.658-0.714,0.658-0.951
					c0-0.192-0.068-0.354-0.2-0.483c-0.138-0.128-0.306-0.192-0.509-0.192c-0.169,0-0.313,0.043-0.432,0.13
					c-0.121,0.086-0.29,0.251-0.517,0.486l-1.822,1.913v-3.933c0-0.329-0.074-0.581-0.221-0.751
					c-0.147-0.171-0.344-0.257-0.593-0.257c-0.256,0-0.457,0.093-0.596,0.283c-0.136,0.188-0.207,0.462-0.207,0.82v6.914
					c0,0.323,0.073,0.568,0.215,0.732c0.141,0.169,0.339,0.251,0.588,0.251c0.213,0,0.405-0.084,0.566-0.254
					c0.164-0.167,0.247-0.406,0.247-0.719v-1.29l0.88-0.83l1.428,2.352c0.182,0.278,0.329,0.472,0.435,0.58
					c0.107,0.109,0.261,0.16,0.459,0.16c0.226,0,0.412-0.073,0.553-0.222c0.142-0.15,0.214-0.351,0.214-0.609
					c0-0.089-0.029-0.189-0.082-0.288C297.47,479.909,297.379,479.765,297.258,479.569z"/>
				<path id="XMLID_386_" style="fill:#EDEFEE;" d="M299.45,479.343c-0.251,0-0.459,0.087-0.63,0.262
					c-0.171,0.173-0.257,0.381-0.257,0.622c0,0.287,0.091,0.51,0.269,0.665c0.179,0.159,0.389,0.238,0.633,0.238
					c0.237,0,0.444-0.079,0.624-0.241c0.175-0.157,0.264-0.38,0.264-0.662c0-0.243-0.089-0.454-0.264-0.626
					C299.909,479.43,299.698,479.343,299.45,479.343z"/>
				<path id="XMLID_385_" style="fill:#EDEFEE;" d="M306.835,478.416c-0.166,0-0.308,0.055-0.422,0.156
					c-0.113,0.104-0.219,0.245-0.318,0.427c-0.177,0.31-0.381,0.538-0.616,0.69c-0.23,0.149-0.509,0.225-0.834,0.225
					c-0.24,0-0.463-0.045-0.666-0.141c-0.201-0.094-0.372-0.229-0.516-0.409c-0.144-0.18-0.252-0.398-0.325-0.652
					c-0.075-0.256-0.114-0.537-0.114-0.842c0-0.646,0.146-1.161,0.439-1.533c0.293-0.375,0.682-0.561,1.158-0.561
					c0.333,0,0.606,0.075,0.82,0.227c0.219,0.147,0.425,0.376,0.623,0.674c0.108,0.158,0.209,0.27,0.299,0.339
					c0.09,0.069,0.201,0.104,0.338,0.104c0.202,0,0.377-0.068,0.524-0.203c0.143-0.135,0.214-0.3,0.214-0.491
					c0-0.192-0.062-0.397-0.192-0.617c-0.127-0.218-0.314-0.424-0.556-0.62c-0.245-0.192-0.54-0.352-0.891-0.474
					c-0.353-0.124-0.736-0.185-1.156-0.185c-0.674,0-1.26,0.139-1.747,0.419c-0.485,0.278-0.858,0.673-1.113,1.183
					c-0.259,0.511-0.387,1.098-0.387,1.765c0,0.982,0.281,1.765,0.841,2.35c0.563,0.582,1.345,0.876,2.349,0.876
					c0.469,0,0.894-0.065,1.269-0.191c0.377-0.126,0.688-0.295,0.935-0.503c0.248-0.207,0.434-0.425,0.553-0.655
					c0.122-0.23,0.183-0.446,0.183-0.647c0-0.169-0.066-0.331-0.198-0.481C307.198,478.493,307.033,478.416,306.835,478.416z"/>
				<path id="XMLID_382_" style="fill:#EDEFEE;" d="M313.647,475.453c-0.288-0.291-0.628-0.518-1.026-0.675
					c-0.4-0.16-0.847-0.238-1.336-0.238c-0.482,0-0.924,0.078-1.326,0.233c-0.398,0.158-0.737,0.38-1.02,0.669
					c-0.281,0.288-0.498,0.637-0.648,1.045c-0.146,0.408-0.225,0.857-0.225,1.349c0,0.485,0.076,0.93,0.22,1.332
					c0.151,0.401,0.369,0.75,0.657,1.048c0.284,0.292,0.626,0.521,1.016,0.676c0.393,0.159,0.835,0.239,1.326,0.239
					c0.492,0,0.936-0.08,1.336-0.234c0.394-0.157,0.735-0.382,1.02-0.675c0.286-0.291,0.502-0.642,0.656-1.05
					c0.146-0.408,0.222-0.854,0.222-1.336c0-0.488-0.075-0.932-0.221-1.339C314.149,476.096,313.933,475.749,313.647,475.453z
					 M312.455,479.368c-0.29,0.373-0.682,0.558-1.171,0.558c-0.324,0-0.604-0.086-0.846-0.253c-0.24-0.168-0.424-0.409-0.554-0.729
					c-0.129-0.316-0.193-0.685-0.193-1.108c0-0.428,0.066-0.803,0.197-1.124c0.13-0.321,0.314-0.564,0.556-0.728
					c0.242-0.163,0.522-0.245,0.84-0.245c0.489,0,0.881,0.182,1.171,0.555c0.289,0.367,0.435,0.881,0.435,1.542
					C312.891,478.486,312.744,478.999,312.455,479.368z"/>
				<path id="XMLID_381_" style="fill:#EDEFEE;" d="M323.569,474.814c-0.32-0.173-0.705-0.263-1.146-0.263
					c-0.38,0-0.726,0.081-1.038,0.241c-0.314,0.161-0.607,0.408-0.882,0.738c-0.191-0.326-0.431-0.572-0.725-0.735
					c-0.292-0.162-0.642-0.244-1.048-0.244c-0.395,0-0.748,0.079-1.07,0.241c-0.319,0.156-0.62,0.403-0.903,0.738v-0.153
					c0-0.261-0.073-0.466-0.221-0.616c-0.15-0.145-0.335-0.221-0.558-0.221c-0.226,0-0.412,0.078-0.556,0.238
					c-0.14,0.157-0.21,0.389-0.21,0.694v4.636c0,0.337,0.078,0.592,0.235,0.765c0.156,0.171,0.357,0.258,0.604,0.258
					c0.248,0,0.447-0.087,0.603-0.258c0.149-0.173,0.227-0.428,0.227-0.765v-2.189c0-0.683,0.086-1.206,0.253-1.566
					c0.169-0.369,0.517-0.55,1.048-0.55c0.264,0,0.459,0.071,0.582,0.22c0.121,0.142,0.197,0.33,0.226,0.552
					c0.027,0.226,0.04,0.544,0.04,0.952v2.581c0,0.342,0.078,0.594,0.232,0.768c0.148,0.17,0.35,0.255,0.595,0.255
					c0.254,0,0.454-0.085,0.61-0.255c0.156-0.174,0.23-0.426,0.23-0.768v-2.153c0-0.694,0.063-1.178,0.178-1.452
					c0.109-0.209,0.259-0.383,0.451-0.508c0.191-0.125,0.395-0.191,0.608-0.191c0.264,0,0.463,0.071,0.596,0.215
					c0.128,0.142,0.209,0.318,0.238,0.528c0.029,0.21,0.044,0.486,0.044,0.837v2.725c0,0.337,0.078,0.592,0.234,0.765
					c0.157,0.171,0.356,0.258,0.603,0.258c0.252,0,0.458-0.085,0.611-0.255c0.154-0.174,0.23-0.426,0.23-0.768v-3.163
					c0-0.629-0.068-1.091-0.206-1.386C324.128,475.237,323.889,474.987,323.569,474.814z"/>
			</g>
			<g id="XMLID_366_">
				<path id="XMLID_379_" style="fill:#EDEFEE;" d="M245.273,477.443c-0.001-0.003-0.001-0.006-0.001-0.011
					C245.272,477.438,245.272,477.44,245.273,477.443z"/>
				<path id="XMLID_378_" style="fill:#EDEFEE;" d="M245.355,477.961c0.001,0,0.001,0,0.001,0c-0.03-0.146-0.055-0.294-0.073-0.438
					C245.302,477.669,245.326,477.816,245.355,477.961z"/>
				<path id="XMLID_377_" style="fill:#EDEFEE;" d="M245.891,479.466c-0.003-0.007-0.006-0.014-0.01-0.021
					C245.885,479.452,245.888,479.459,245.891,479.466z"/>
				<path id="XMLID_376_" style="fill:#EDEFEE;" d="M245.84,479.365c-0.014-0.027-0.027-0.056-0.04-0.083
					C245.813,479.311,245.826,479.338,245.84,479.365z"/>
				<path id="XMLID_375_" style="fill:#EDEFEE;" d="M245.506,478.541c0.08,0.25,0.175,0.492,0.286,0.724
					c-0.113-0.236-0.206-0.478-0.284-0.724H245.506z"/>
				<path id="XMLID_374_" style="fill:#EDEFEE;" d="M250.736,470.682l-0.076-0.26c0.299-0.063,0.523-0.329,0.523-0.647
					c0-0.363-0.296-0.659-0.66-0.659c-0.365,0-0.66,0.296-0.66,0.659c0,0.317,0.225,0.584,0.522,0.647l0.084,0.289
					c-1.021,0.141-1.834,0.539-1.834,0.539l0.144,0.44c0.617-0.206,1.153-0.331,1.639-0.383c0.476-0.051,0.833-0.073,1.126-0.073
					c0.314,0,0.545,0.025,0.81,0.069l0.075-0.476C252.43,470.828,251.697,470.603,250.736,470.682z"/>
				<path id="XMLID_373_" style="fill:#EDEFEE;" d="M245.453,473.189c-0.017,0.023-0.497,0.465-0.875,1.279
					c-0.016-0.025-0.035-0.051-0.056-0.074c-0.114-0.124-0.273-0.188-0.474-0.184c-0.003,0-0.006,0-0.01,0
					c-0.124,0-0.21-0.042-0.266-0.093c0.056-0.07,0.089-0.16,0.089-0.258c0-0.23-0.188-0.419-0.419-0.419
					c-0.23,0-0.417,0.189-0.417,0.419c0,0.231,0.188,0.417,0.417,0.417c0.037,0,0.071-0.005,0.105-0.012
					c0.103,0.113,0.266,0.214,0.504,0.209c0.124-0.002,0.214,0.03,0.273,0.097c0.07,0.075,0.093,0.185,0.1,0.267
					c-0.001,0.002-0.001,0.004-0.002,0.004c-0.272,0.743-0.194,1.668-0.194,1.668l0.661,0.025c0.014-0.336,0.062-0.925,0.232-1.393
					c0.329-0.906,0.741-1.472,0.757-1.496l0.004-0.005c0.024-0.031,0.047-0.06,0.071-0.089l-0.196-0.142L245.453,473.189z"/>
				<path id="XMLID_372_" style="fill:#EDEFEE;" d="M257.294,471.787c-0.23,0-0.419,0.186-0.419,0.417
					c0,0.037,0.006,0.071,0.016,0.104c-0.115,0.104-0.215,0.267-0.211,0.506c0.002,0.123-0.03,0.213-0.097,0.273
					c-0.053,0.047-0.119,0.071-0.185,0.087c-0.492-0.689-1.098-1.109-1.098-1.109l-0.474,0.509c0.358,0.326,0.725,0.734,1.08,1.244
					c0.246,0.352,0.499,0.806,0.71,1.258l0.64-0.304c0,0-0.292-0.722-0.703-1.369c0.071-0.025,0.143-0.063,0.206-0.12
					c0.126-0.113,0.187-0.272,0.184-0.474c-0.001-0.13,0.041-0.218,0.093-0.275c0.071,0.054,0.16,0.089,0.258,0.089
					c0.232,0,0.418-0.188,0.418-0.419C257.712,471.974,257.526,471.787,257.294,471.787z"/>
				<path id="XMLID_371_" style="fill:#EDEFEE;" d="M255.633,477.537c-0.88,0.429-2.33,0.996-4.236,1.262
					c-0.749,0.104-1.474,0.143-2.142,0.143c-0.869,0-1.638-0.064-2.227-0.14c-0.672-0.084-1.198-0.188-1.52-0.261
					c0.078,0.245,0.171,0.487,0.284,0.724c0.002,0.006,0.005,0.013,0.008,0.018c0.013,0.027,0.027,0.056,0.04,0.083
					c0.014,0.027,0.027,0.055,0.041,0.079c0.004,0.008,0.007,0.015,0.01,0.021c0.189,0.357,0.417,0.684,0.676,0.968
					c0.899,0.984,1.816,1.139,1.825,1.141l0.015,0.002l0.013,0.005c0.009,0.003,0.821,0.265,2.057,0.265
					c1.215,0,2.409-0.244,3.545-0.729c0.842-0.431,1.639-1.085,2.033-1.668c0.306-0.452,0.526-0.934,0.656-1.434
					c0.069-0.266,0.124-0.692,0.092-1.141C256.555,477.042,256.163,477.279,255.633,477.537z"/>
				<path id="XMLID_367_" style="fill:#EDEFEE;" d="M252.322,471.655c-0.265-0.044-0.477-0.068-0.777-0.068
					c-0.279,0-0.626,0.022-1.088,0.07c-0.465,0.049-0.982,0.171-1.583,0.373c-0.842,0.282-1.604,0.725-2.204,1.28l-0.02,0.019
					c-0.089,0.081-0.275,0.254-0.488,0.525c-0.025,0.037-0.408,0.578-0.709,1.408c-0.226,0.621-0.216,1.526-0.216,1.537v0.001
					c0,0.212,0.013,0.423,0.036,0.632c0,0.005,0,0.008,0.001,0.011c0.003,0.027,0.007,0.053,0.01,0.08
					c0.019,0.144,0.043,0.291,0.074,0.438c0.438,0.112,3.048,0.721,5.967,0.314c1.829-0.254,3.218-0.795,4.061-1.204
					c0.701-0.34,1.151-0.647,1.325-0.773c-0.173-0.643-0.651-1.65-1.089-2.278C254.367,472.228,253.016,471.77,252.322,471.655z
					 M248.679,476.914c-0.972,0-1.759-0.787-1.759-1.76c0-0.972,0.788-1.76,1.759-1.76c0.973,0,1.761,0.788,1.761,1.76
					C250.44,476.127,249.652,476.914,248.679,476.914z M253.828,475.617c-0.601,0-1.088-0.489-1.088-1.09
					c0-0.603,0.487-1.09,1.088-1.09s1.09,0.487,1.09,1.09C254.918,475.128,254.429,475.617,253.828,475.617z"/>
			</g>
		</g>
	</g>
</g>
</svg>
